STARTFONT 2.1
FONT -IBM-CGA-Light-R-Condensed--16-120-96-96-C-80-ISO10646-1
SIZE 12 96 96
FONTBOUNDINGBOX 8 16 0 -2
STARTPROPERTIES 34
FOUNDRY "IBM"
FAMILY_NAME "IBM CGA Light 8x16"
WEIGHT_NAME "Light"
SLANT "R"
SETWIDTH_NAME "Condensed"
ADD_STYLE_NAME ""
PIXEL_SIZE 16
POINT_SIZE 120
RESOLUTION_X 96
RESOLUTION_Y 96
SPACING "C"
AVERAGE_WIDTH 80
CHARSET_REGISTRY "ISO10646"
CHARSET_ENCODING "1"
FONTNAME_REGISTRY ""
CHARSET_COLLECTIONS "ASCII ISOLatin1Encoding ISO8859-2 ISO8859-5 ISO8859-7 ISO8859-9 ISO8859-8 ISO8859-4 ISO10646-1"
FONT_NAME "IBMCGALight8x16"
FACE_NAME "IBM CGA Light 8x16"
COPYRIGHT "BDF conversion (c) 2016 farsil, license: CC BY-SA 4.0"
FONT_VERSION "001.000"
FONT_ASCENT 14
FONT_DESCENT 2
UNDERLINE_POSITION -2
UNDERLINE_THICKNESS 1
X_HEIGHT 10
CAP_HEIGHT 14
RAW_ASCENT 875
RAW_DESCENT 125
NORM_SPACE 8
RELATIVE_WEIGHT 30
RELATIVE_SETWIDTH 30
FIGURE_WIDTH 8
AVG_LOWERCASE_WIDTH 80
AVG_UPPERCASE_WIDTH 80
ENDPROPERTIES
CHARS 782
STARTCHAR uni0000.dup1
ENCODING 0
SWIDTH 500 0
DWIDTH 8 0
BBX 1 1 0 0
BITMAP
00
ENDCHAR
STARTCHAR uni0001
ENCODING 1
SWIDTH 500 0
DWIDTH 8 0
BBX 8 16 0 -2
BITMAP
7E
7E
81
81
A5
A5
81
81
BD
BD
99
99
81
81
7E
7E
ENDCHAR
STARTCHAR uni0002
ENCODING 2
SWIDTH 500 0
DWIDTH 8 0
BBX 8 16 0 -2
BITMAP
7E
7E
FF
FF
DB
DB
FF
FF
C3
C3
E7
E7
FF
FF
7E
7E
ENDCHAR
STARTCHAR uni0003
ENCODING 3
SWIDTH 500 0
DWIDTH 8 0
BBX 7 14 0 0
BITMAP
6C
6C
FE
FE
FE
FE
FE
FE
7C
7C
38
38
10
10
ENDCHAR
STARTCHAR uni0004
ENCODING 4
SWIDTH 500 0
DWIDTH 8 0
BBX 7 14 0 0
BITMAP
10
10
38
38
7C
7C
FE
FE
7C
7C
38
38
10
10
ENDCHAR
STARTCHAR uni0005
ENCODING 5
SWIDTH 500 0
DWIDTH 8 0
BBX 7 16 0 -2
BITMAP
38
38
7C
7C
38
38
FE
FE
FE
FE
D6
D6
10
10
38
38
ENDCHAR
STARTCHAR uni0006
ENCODING 6
SWIDTH 500 0
DWIDTH 8 0
BBX 7 16 0 -2
BITMAP
10
10
10
10
38
38
7C
7C
FE
FE
7C
7C
10
10
38
38
ENDCHAR
STARTCHAR uni0007
ENCODING 7
SWIDTH 500 0
DWIDTH 8 0
BBX 4 8 2 2
BITMAP
60
60
F0
F0
F0
F0
60
60
ENDCHAR
STARTCHAR uni0008
ENCODING 8
SWIDTH 500 0
DWIDTH 8 0
BBX 8 16 0 -2
BITMAP
FF
FF
FF
FF
E7
E7
C3
C3
C3
C3
E7
E7
FF
FF
FF
FF
ENDCHAR
STARTCHAR uni0009
ENCODING 9
SWIDTH 500 0
DWIDTH 8 0
BBX 6 12 1 0
BITMAP
78
78
CC
CC
84
84
84
84
CC
CC
78
78
ENDCHAR
STARTCHAR uni000A
ENCODING 10
SWIDTH 500 0
DWIDTH 8 0
BBX 8 16 0 -2
BITMAP
FF
FF
C3
C3
99
99
BD
BD
BD
BD
99
99
C3
C3
FF
FF
ENDCHAR
STARTCHAR uni000B
ENCODING 11
SWIDTH 500 0
DWIDTH 8 0
BBX 8 16 0 -2
BITMAP
0F
0F
03
03
05
05
7D
7D
84
84
84
84
84
84
78
78
ENDCHAR
STARTCHAR uni000C
ENCODING 12
SWIDTH 500 0
DWIDTH 8 0
BBX 6 16 1 -2
BITMAP
78
78
84
84
84
84
84
84
78
78
30
30
FC
FC
30
30
ENDCHAR
STARTCHAR uni000D
ENCODING 13
SWIDTH 500 0
DWIDTH 8 0
BBX 8 16 0 -2
BITMAP
3F
3F
21
21
3F
3F
20
20
20
20
60
60
E0
E0
C0
C0
ENDCHAR
STARTCHAR uni000E
ENCODING 14
SWIDTH 500 0
DWIDTH 8 0
BBX 8 16 0 -2
BITMAP
3F
3F
21
21
3F
3F
21
21
23
23
67
67
E6
E6
C0
C0
ENDCHAR
STARTCHAR uni000F
ENCODING 15
SWIDTH 500 0
DWIDTH 8 0
BBX 8 16 0 -2
BITMAP
18
18
DB
DB
3C
3C
E7
E7
E7
E7
3C
3C
DB
DB
18
18
ENDCHAR
STARTCHAR uni0010
ENCODING 16
SWIDTH 500 0
DWIDTH 8 0
BBX 7 14 0 0
BITMAP
80
80
E0
E0
F8
F8
FE
FE
F8
F8
E0
E0
80
80
ENDCHAR
STARTCHAR uni0011
ENCODING 17
SWIDTH 500 0
DWIDTH 8 0
BBX 7 14 0 0
BITMAP
02
02
0E
0E
3E
3E
FE
FE
3E
3E
0E
0E
02
02
ENDCHAR
STARTCHAR uni0012
ENCODING 18
SWIDTH 500 0
DWIDTH 8 0
BBX 6 16 1 -2
BITMAP
30
30
78
78
FC
FC
30
30
30
30
FC
FC
78
78
30
30
ENDCHAR
STARTCHAR uni0013
ENCODING 19
SWIDTH 500 0
DWIDTH 8 0
BBX 4 14 2 0
BITMAP
90
90
90
90
90
90
90
90
90
90
00
00
90
90
ENDCHAR
STARTCHAR uni0014
ENCODING 20
SWIDTH 500 0
DWIDTH 8 0
BBX 8 14 0 0
BITMAP
7F
7F
92
92
92
92
72
72
12
12
12
12
12
12
ENDCHAR
STARTCHAR uni0015
ENCODING 21
SWIDTH 500 0
DWIDTH 8 0
BBX 8 16 0 -2
BITMAP
3E
3E
63
63
38
38
44
44
44
44
38
38
CC
CC
78
78
ENDCHAR
STARTCHAR uni0016
ENCODING 22
SWIDTH 500 0
DWIDTH 8 0
BBX 6 6 1 0
BITMAP
FC
FC
FC
FC
FC
FC
ENDCHAR
STARTCHAR uni0017
ENCODING 23
SWIDTH 500 0
DWIDTH 8 0
BBX 8 16 0 -2
BITMAP
18
18
3C
3C
7E
7E
18
18
7E
7E
3C
3C
18
18
FF
FF
ENDCHAR
STARTCHAR uni0018
ENCODING 24
SWIDTH 500 0
DWIDTH 8 0
BBX 5 14 1 0
BITMAP
20
20
70
70
F8
F8
A8
A8
20
20
20
20
20
20
ENDCHAR
STARTCHAR uni0019
ENCODING 25
SWIDTH 500 0
DWIDTH 8 0
BBX 5 14 1 0
BITMAP
20
20
20
20
20
20
A8
A8
F8
F8
70
70
20
20
ENDCHAR
STARTCHAR uni001A
ENCODING 26
SWIDTH 500 0
DWIDTH 8 0
BBX 7 10 0 2
BITMAP
18
18
0C
0C
FE
FE
0C
0C
18
18
ENDCHAR
STARTCHAR uni001B
ENCODING 27
SWIDTH 500 0
DWIDTH 8 0
BBX 7 10 0 2
BITMAP
30
30
60
60
FE
FE
60
60
30
30
ENDCHAR
STARTCHAR uni001C
ENCODING 28
SWIDTH 500 0
DWIDTH 8 0
BBX 6 8 1 2
BITMAP
80
80
80
80
80
80
FC
FC
ENDCHAR
STARTCHAR uni001D
ENCODING 29
SWIDTH 500 0
DWIDTH 8 0
BBX 8 10 0 2
BITMAP
24
24
66
66
FF
FF
66
66
24
24
ENDCHAR
STARTCHAR uni001E
ENCODING 30
SWIDTH 500 0
DWIDTH 8 0
BBX 7 10 0 2
BITMAP
10
10
38
38
7C
7C
FE
FE
FE
FE
ENDCHAR
STARTCHAR uni001F
ENCODING 31
SWIDTH 500 0
DWIDTH 8 0
BBX 7 10 0 2
BITMAP
FE
FE
FE
FE
7C
7C
38
38
10
10
ENDCHAR
STARTCHAR space
ENCODING 32
SWIDTH 500 0
DWIDTH 8 0
BBX 1 1 0 0
BITMAP
00
ENDCHAR
STARTCHAR exclam
ENCODING 33
SWIDTH 500 0
DWIDTH 8 0
BBX 3 14 2 0
BITMAP
40
40
E0
E0
E0
E0
40
40
40
40
00
00
40
40
ENDCHAR
STARTCHAR quotedbl
ENCODING 34
SWIDTH 500 0
DWIDTH 8 0
BBX 4 6 2 8
BITMAP
90
90
90
90
90
90
ENDCHAR
STARTCHAR numbersign
ENCODING 35
SWIDTH 500 0
DWIDTH 8 0
BBX 6 14 1 0
BITMAP
48
48
48
48
FC
FC
48
48
FC
FC
48
48
48
48
ENDCHAR
STARTCHAR dollar
ENCODING 36
SWIDTH 500 0
DWIDTH 8 0
BBX 6 14 1 0
BITMAP
30
30
7C
7C
80
80
78
78
04
04
F8
F8
30
30
ENDCHAR
STARTCHAR percent
ENCODING 37
SWIDTH 500 0
DWIDTH 8 0
BBX 6 12 1 0
BITMAP
C4
C4
C8
C8
10
10
20
20
4C
4C
8C
8C
ENDCHAR
STARTCHAR ampersand
ENCODING 38
SWIDTH 500 0
DWIDTH 8 0
BBX 7 14 0 0
BITMAP
30
30
48
48
30
30
56
56
88
88
88
88
76
76
ENDCHAR
STARTCHAR quotesingle
ENCODING 39
SWIDTH 500 0
DWIDTH 8 0
BBX 2 6 2 8
BITMAP
40
40
40
40
80
80
ENDCHAR
STARTCHAR parenleft
ENCODING 40
SWIDTH 500 0
DWIDTH 8 0
BBX 3 14 1 0
BITMAP
20
20
40
40
80
80
80
80
80
80
40
40
20
20
ENDCHAR
STARTCHAR parenright
ENCODING 41
SWIDTH 500 0
DWIDTH 8 0
BBX 3 14 2 0
BITMAP
80
80
40
40
20
20
20
20
20
20
40
40
80
80
ENDCHAR
STARTCHAR asterisk
ENCODING 42
SWIDTH 500 0
DWIDTH 8 0
BBX 7 10 0 2
BITMAP
44
44
38
38
FE
FE
38
38
44
44
ENDCHAR
STARTCHAR plus
ENCODING 43
SWIDTH 500 0
DWIDTH 8 0
BBX 5 10 1 2
BITMAP
20
20
20
20
F8
F8
20
20
20
20
ENDCHAR
STARTCHAR comma
ENCODING 44
SWIDTH 500 0
DWIDTH 8 0
BBX 2 6 2 -2
BITMAP
40
40
40
40
80
80
ENDCHAR
STARTCHAR hyphen
ENCODING 45
SWIDTH 500 0
DWIDTH 8 0
BBX 6 2 1 6
BITMAP
FC
FC
ENDCHAR
STARTCHAR period
ENCODING 46
SWIDTH 500 0
DWIDTH 8 0
BBX 1 4 3 0
BITMAP
80
80
80
80
ENDCHAR
STARTCHAR slash
ENCODING 47
SWIDTH 500 0
DWIDTH 8 0
BBX 6 12 1 0
BITMAP
04
04
08
08
10
10
20
20
40
40
80
80
ENDCHAR
STARTCHAR zero
ENCODING 48
SWIDTH 500 0
DWIDTH 8 0
BBX 6 14 1 0
BITMAP
78
78
84
84
8C
8C
94
94
A4
A4
C4
C4
78
78
ENDCHAR
STARTCHAR one
ENCODING 49
SWIDTH 500 0
DWIDTH 8 0
BBX 5 14 1 0
BITMAP
20
20
60
60
A0
A0
20
20
20
20
20
20
F8
F8
ENDCHAR
STARTCHAR two
ENCODING 50
SWIDTH 500 0
DWIDTH 8 0
BBX 6 14 1 0
BITMAP
78
78
84
84
04
04
18
18
60
60
84
84
FC
FC
ENDCHAR
STARTCHAR three
ENCODING 51
SWIDTH 500 0
DWIDTH 8 0
BBX 6 14 1 0
BITMAP
78
78
84
84
04
04
38
38
04
04
84
84
78
78
ENDCHAR
STARTCHAR four
ENCODING 52
SWIDTH 500 0
DWIDTH 8 0
BBX 7 14 0 0
BITMAP
08
08
18
18
28
28
48
48
FE
FE
08
08
1C
1C
ENDCHAR
STARTCHAR five
ENCODING 53
SWIDTH 500 0
DWIDTH 8 0
BBX 6 14 1 0
BITMAP
FC
FC
80
80
F8
F8
04
04
04
04
84
84
78
78
ENDCHAR
STARTCHAR six
ENCODING 54
SWIDTH 500 0
DWIDTH 8 0
BBX 6 14 1 0
BITMAP
38
38
40
40
80
80
F8
F8
84
84
84
84
78
78
ENDCHAR
STARTCHAR seven
ENCODING 55
SWIDTH 500 0
DWIDTH 8 0
BBX 6 14 1 0
BITMAP
FC
FC
84
84
08
08
10
10
20
20
20
20
20
20
ENDCHAR
STARTCHAR eight
ENCODING 56
SWIDTH 500 0
DWIDTH 8 0
BBX 6 14 1 0
BITMAP
78
78
84
84
84
84
78
78
84
84
84
84
78
78
ENDCHAR
STARTCHAR nine
ENCODING 57
SWIDTH 500 0
DWIDTH 8 0
BBX 6 14 1 0
BITMAP
78
78
84
84
84
84
7C
7C
04
04
08
08
70
70
ENDCHAR
STARTCHAR colon
ENCODING 58
SWIDTH 500 0
DWIDTH 8 0
BBX 1 12 3 0
BITMAP
80
80
80
80
00
00
00
00
80
80
80
80
ENDCHAR
STARTCHAR semicolon
ENCODING 59
SWIDTH 500 0
DWIDTH 8 0
BBX 2 14 2 -2
BITMAP
40
40
40
40
00
00
00
00
40
40
40
40
80
80
ENDCHAR
STARTCHAR less
ENCODING 60
SWIDTH 500 0
DWIDTH 8 0
BBX 4 14 1 0
BITMAP
10
10
20
20
40
40
80
80
40
40
20
20
10
10
ENDCHAR
STARTCHAR equal
ENCODING 61
SWIDTH 500 0
DWIDTH 8 0
BBX 6 8 1 2
BITMAP
FC
FC
00
00
00
00
FC
FC
ENDCHAR
STARTCHAR greater
ENCODING 62
SWIDTH 500 0
DWIDTH 8 0
BBX 4 14 3 0
BITMAP
80
80
40
40
20
20
10
10
20
20
40
40
80
80
ENDCHAR
STARTCHAR question
ENCODING 63
SWIDTH 500 0
DWIDTH 8 0
BBX 6 14 1 0
BITMAP
78
78
84
84
04
04
08
08
10
10
00
00
10
10
ENDCHAR
STARTCHAR at
ENCODING 64
SWIDTH 500 0
DWIDTH 8 0
BBX 6 14 1 0
BITMAP
78
78
84
84
BC
BC
A4
A4
BC
BC
80
80
78
78
ENDCHAR
STARTCHAR A
ENCODING 65
SWIDTH 500 0
DWIDTH 8 0
BBX 6 14 1 0
BITMAP
30
30
48
48
84
84
84
84
FC
FC
84
84
84
84
ENDCHAR
STARTCHAR B
ENCODING 66
SWIDTH 500 0
DWIDTH 8 0
BBX 6 14 1 0
BITMAP
F8
F8
44
44
44
44
78
78
44
44
44
44
F8
F8
ENDCHAR
STARTCHAR C
ENCODING 67
SWIDTH 500 0
DWIDTH 8 0
BBX 6 14 1 0
BITMAP
38
38
44
44
80
80
80
80
80
80
44
44
38
38
ENDCHAR
STARTCHAR D
ENCODING 68
SWIDTH 500 0
DWIDTH 8 0
BBX 6 14 1 0
BITMAP
F0
F0
48
48
44
44
44
44
44
44
48
48
F0
F0
ENDCHAR
STARTCHAR E
ENCODING 69
SWIDTH 500 0
DWIDTH 8 0
BBX 6 14 1 0
BITMAP
FC
FC
44
44
50
50
70
70
50
50
44
44
FC
FC
ENDCHAR
STARTCHAR F
ENCODING 70
SWIDTH 500 0
DWIDTH 8 0
BBX 6 14 1 0
BITMAP
FC
FC
44
44
50
50
70
70
50
50
40
40
E0
E0
ENDCHAR
STARTCHAR G
ENCODING 71
SWIDTH 500 0
DWIDTH 8 0
BBX 6 14 1 0
BITMAP
38
38
44
44
80
80
80
80
9C
9C
44
44
3C
3C
ENDCHAR
STARTCHAR H
ENCODING 72
SWIDTH 500 0
DWIDTH 8 0
BBX 6 14 1 0
BITMAP
84
84
84
84
84
84
FC
FC
84
84
84
84
84
84
ENDCHAR
STARTCHAR I
ENCODING 73
SWIDTH 500 0
DWIDTH 8 0
BBX 3 14 2 0
BITMAP
E0
E0
40
40
40
40
40
40
40
40
40
40
E0
E0
ENDCHAR
STARTCHAR J
ENCODING 74
SWIDTH 500 0
DWIDTH 8 0
BBX 6 14 1 0
BITMAP
1C
1C
08
08
08
08
08
08
88
88
88
88
70
70
ENDCHAR
STARTCHAR K
ENCODING 75
SWIDTH 500 0
DWIDTH 8 0
BBX 7 14 1 0
BITMAP
C4
C4
48
48
50
50
60
60
50
50
48
48
C6
C6
ENDCHAR
STARTCHAR L
ENCODING 76
SWIDTH 500 0
DWIDTH 8 0
BBX 6 14 1 0
BITMAP
E0
E0
40
40
40
40
40
40
40
40
44
44
FC
FC
ENDCHAR
STARTCHAR M
ENCODING 77
SWIDTH 500 0
DWIDTH 8 0
BBX 7 14 1 0
BITMAP
C6
C6
AA
AA
92
92
82
82
82
82
82
82
82
82
ENDCHAR
STARTCHAR N
ENCODING 78
SWIDTH 500 0
DWIDTH 8 0
BBX 6 14 1 0
BITMAP
C4
C4
A4
A4
94
94
8C
8C
84
84
84
84
84
84
ENDCHAR
STARTCHAR O
ENCODING 79
SWIDTH 500 0
DWIDTH 8 0
BBX 6 14 1 0
BITMAP
30
30
48
48
84
84
84
84
84
84
48
48
30
30
ENDCHAR
STARTCHAR P
ENCODING 80
SWIDTH 500 0
DWIDTH 8 0
BBX 6 14 1 0
BITMAP
F8
F8
44
44
44
44
78
78
40
40
40
40
E0
E0
ENDCHAR
STARTCHAR Q
ENCODING 81
SWIDTH 500 0
DWIDTH 8 0
BBX 7 14 1 0
BITMAP
78
78
84
84
84
84
84
84
94
94
78
78
06
06
ENDCHAR
STARTCHAR R
ENCODING 82
SWIDTH 500 0
DWIDTH 8 0
BBX 6 14 1 0
BITMAP
F8
F8
44
44
44
44
78
78
50
50
48
48
E4
E4
ENDCHAR
STARTCHAR S
ENCODING 83
SWIDTH 500 0
DWIDTH 8 0
BBX 6 14 1 0
BITMAP
78
78
84
84
80
80
78
78
04
04
84
84
78
78
ENDCHAR
STARTCHAR T
ENCODING 84
SWIDTH 500 0
DWIDTH 8 0
BBX 7 14 1 0
BITMAP
FE
FE
92
92
10
10
10
10
10
10
10
10
38
38
ENDCHAR
STARTCHAR U
ENCODING 85
SWIDTH 500 0
DWIDTH 8 0
BBX 6 14 1 0
BITMAP
84
84
84
84
84
84
84
84
84
84
84
84
78
78
ENDCHAR
STARTCHAR V
ENCODING 86
SWIDTH 500 0
DWIDTH 8 0
BBX 7 14 1 0
BITMAP
82
82
82
82
82
82
82
82
44
44
28
28
10
10
ENDCHAR
STARTCHAR W
ENCODING 87
SWIDTH 500 0
DWIDTH 8 0
BBX 7 14 1 0
BITMAP
82
82
82
82
82
82
92
92
92
92
92
92
6C
6C
ENDCHAR
STARTCHAR X
ENCODING 88
SWIDTH 500 0
DWIDTH 8 0
BBX 7 14 1 0
BITMAP
82
82
44
44
28
28
10
10
28
28
44
44
82
82
ENDCHAR
STARTCHAR Y
ENCODING 89
SWIDTH 500 0
DWIDTH 8 0
BBX 7 14 1 0
BITMAP
82
82
44
44
28
28
10
10
10
10
10
10
38
38
ENDCHAR
STARTCHAR Z
ENCODING 90
SWIDTH 500 0
DWIDTH 8 0
BBX 7 14 1 0
BITMAP
FE
FE
84
84
08
08
10
10
20
20
42
42
FE
FE
ENDCHAR
STARTCHAR bracketleft
ENCODING 91
SWIDTH 500 0
DWIDTH 8 0
BBX 4 14 1 0
BITMAP
F0
F0
80
80
80
80
80
80
80
80
80
80
F0
F0
ENDCHAR
STARTCHAR backslash
ENCODING 92
SWIDTH 500 0
DWIDTH 8 0
BBX 7 14 0 0
BITMAP
80
80
40
40
20
20
10
10
08
08
04
04
02
02
ENDCHAR
STARTCHAR bracketright
ENCODING 93
SWIDTH 500 0
DWIDTH 8 0
BBX 4 14 1 0
BITMAP
F0
F0
10
10
10
10
10
10
10
10
10
10
F0
F0
ENDCHAR
STARTCHAR asciicircum
ENCODING 94
SWIDTH 500 0
DWIDTH 8 0
BBX 7 8 0 6
BITMAP
10
10
28
28
44
44
82
82
ENDCHAR
STARTCHAR underscore
ENCODING 95
SWIDTH 500 0
DWIDTH 8 0
BBX 8 2 0 -2
BITMAP
FF
FF
ENDCHAR
STARTCHAR grave
ENCODING 96
SWIDTH 500 0
DWIDTH 8 0
BBX 2 6 3 8
BITMAP
80
80
80
80
40
40
ENDCHAR
STARTCHAR a
ENCODING 97
SWIDTH 500 0
DWIDTH 8 0
BBX 7 10 1 0
BITMAP
78
78
04
04
7C
7C
84
84
7E
7E
ENDCHAR
STARTCHAR b
ENCODING 98
SWIDTH 500 0
DWIDTH 8 0
BBX 7 14 1 0
BITMAP
C0
C0
40
40
40
40
5C
5C
62
62
62
62
5C
5C
ENDCHAR
STARTCHAR c
ENCODING 99
SWIDTH 500 0
DWIDTH 8 0
BBX 6 10 1 0
BITMAP
78
78
84
84
80
80
84
84
78
78
ENDCHAR
STARTCHAR d
ENCODING 100
SWIDTH 500 0
DWIDTH 8 0
BBX 7 14 1 0
BITMAP
0C
0C
04
04
04
04
74
74
8C
8C
8C
8C
76
76
ENDCHAR
STARTCHAR e
ENCODING 101
SWIDTH 500 0
DWIDTH 8 0
BBX 6 10 1 0
BITMAP
78
78
84
84
FC
FC
80
80
78
78
ENDCHAR
STARTCHAR f
ENCODING 102
SWIDTH 500 0
DWIDTH 8 0
BBX 5 14 2 0
BITMAP
30
30
48
48
40
40
E0
E0
40
40
40
40
E0
E0
ENDCHAR
STARTCHAR g
ENCODING 103
SWIDTH 500 0
DWIDTH 8 0
BBX 7 12 1 -2
BITMAP
7A
7A
84
84
84
84
7C
7C
04
04
F8
F8
ENDCHAR
STARTCHAR h
ENCODING 104
SWIDTH 500 0
DWIDTH 8 0
BBX 6 14 1 0
BITMAP
C0
C0
40
40
58
58
64
64
44
44
44
44
C4
C4
ENDCHAR
STARTCHAR i
ENCODING 105
SWIDTH 500 0
DWIDTH 8 0
BBX 3 14 2 0
BITMAP
40
40
00
00
C0
C0
40
40
40
40
40
40
E0
E0
ENDCHAR
STARTCHAR j
ENCODING 106
SWIDTH 500 0
DWIDTH 8 0
BBX 6 16 1 -2
BITMAP
04
04
00
00
0C
0C
04
04
04
04
84
84
84
84
78
78
ENDCHAR
STARTCHAR k
ENCODING 107
SWIDTH 500 0
DWIDTH 8 0
BBX 6 14 1 0
BITMAP
C0
C0
40
40
48
48
50
50
60
60
50
50
4C
4C
ENDCHAR
STARTCHAR l
ENCODING 108
SWIDTH 500 0
DWIDTH 8 0
BBX 3 14 2 0
BITMAP
C0
C0
40
40
40
40
40
40
40
40
40
40
E0
E0
ENDCHAR
STARTCHAR m
ENCODING 109
SWIDTH 500 0
DWIDTH 8 0
BBX 7 10 1 0
BITMAP
EC
EC
92
92
92
92
92
92
92
92
ENDCHAR
STARTCHAR n
ENCODING 110
SWIDTH 500 0
DWIDTH 8 0
BBX 6 10 1 0
BITMAP
B8
B8
C4
C4
84
84
84
84
84
84
ENDCHAR
STARTCHAR o
ENCODING 111
SWIDTH 500 0
DWIDTH 8 0
BBX 6 10 1 0
BITMAP
78
78
84
84
84
84
84
84
78
78
ENDCHAR
STARTCHAR p
ENCODING 112
SWIDTH 500 0
DWIDTH 8 0
BBX 6 12 1 -2
BITMAP
D8
D8
64
64
64
64
58
58
40
40
E0
E0
ENDCHAR
STARTCHAR q
ENCODING 113
SWIDTH 500 0
DWIDTH 8 0
BBX 6 12 1 -2
BITMAP
6C
6C
98
98
98
98
68
68
08
08
1C
1C
ENDCHAR
STARTCHAR r
ENCODING 114
SWIDTH 500 0
DWIDTH 8 0
BBX 6 10 1 0
BITMAP
D8
D8
64
64
44
44
40
40
E0
E0
ENDCHAR
STARTCHAR s
ENCODING 115
SWIDTH 500 0
DWIDTH 8 0
BBX 6 10 1 0
BITMAP
7C
7C
80
80
78
78
04
04
F8
F8
ENDCHAR
STARTCHAR t
ENCODING 116
SWIDTH 500 0
DWIDTH 8 0
BBX 6 14 1 0
BITMAP
20
20
20
20
F8
F8
20
20
20
20
24
24
18
18
ENDCHAR
STARTCHAR u
ENCODING 117
SWIDTH 500 0
DWIDTH 8 0
BBX 6 10 1 0
BITMAP
84
84
84
84
84
84
8C
8C
74
74
ENDCHAR
STARTCHAR v
ENCODING 118
SWIDTH 500 0
DWIDTH 8 0
BBX 7 10 1 0
BITMAP
82
82
82
82
44
44
28
28
10
10
ENDCHAR
STARTCHAR w
ENCODING 119
SWIDTH 500 0
DWIDTH 8 0
BBX 7 10 1 0
BITMAP
82
82
92
92
92
92
92
92
6C
6C
ENDCHAR
STARTCHAR x
ENCODING 120
SWIDTH 500 0
DWIDTH 8 0
BBX 5 10 1 0
BITMAP
88
88
50
50
20
20
50
50
88
88
ENDCHAR
STARTCHAR y
ENCODING 121
SWIDTH 500 0
DWIDTH 8 0
BBX 6 12 1 -2
BITMAP
84
84
84
84
84
84
7C
7C
04
04
F8
F8
ENDCHAR
STARTCHAR z
ENCODING 122
SWIDTH 500 0
DWIDTH 8 0
BBX 5 10 1 0
BITMAP
F8
F8
10
10
20
20
40
40
F8
F8
ENDCHAR
STARTCHAR braceleft
ENCODING 123
SWIDTH 500 0
DWIDTH 8 0
BBX 5 14 1 0
BITMAP
18
18
20
20
20
20
C0
C0
20
20
20
20
18
18
ENDCHAR
STARTCHAR bar
ENCODING 124
SWIDTH 500 0
DWIDTH 8 0
BBX 1 14 3 0
BITMAP
80
80
80
80
80
80
00
00
80
80
80
80
80
80
ENDCHAR
STARTCHAR braceright
ENCODING 125
SWIDTH 500 0
DWIDTH 8 0
BBX 5 14 2 0
BITMAP
C0
C0
20
20
20
20
18
18
20
20
20
20
C0
C0
ENDCHAR
STARTCHAR asciitilde
ENCODING 126
SWIDTH 500 0
DWIDTH 8 0
BBX 6 4 1 10
BITMAP
64
64
98
98
ENDCHAR
STARTCHAR uni007F
ENCODING 127
SWIDTH 500 0
DWIDTH 8 0
BBX 7 12 1 0
BITMAP
10
10
28
28
44
44
82
82
82
82
FE
FE
ENDCHAR
STARTCHAR uni00A0
ENCODING 160
SWIDTH 500 0
DWIDTH 8 0
BBX 1 1 0 0
BITMAP
00
ENDCHAR
STARTCHAR exclamdown
ENCODING 161
SWIDTH 500 0
DWIDTH 8 0
BBX 1 12 3 0
BITMAP
80
80
00
00
80
80
80
80
80
80
80
80
ENDCHAR
STARTCHAR cent
ENCODING 162
SWIDTH 500 0
DWIDTH 8 0
BBX 6 16 1 -2
BITMAP
10
10
10
10
7C
7C
80
80
80
80
7C
7C
10
10
10
10
ENDCHAR
STARTCHAR sterling
ENCODING 163
SWIDTH 500 0
DWIDTH 8 0
BBX 6 14 1 0
BITMAP
30
30
48
48
40
40
E0
E0
40
40
84
84
F8
F8
ENDCHAR
STARTCHAR currency
ENCODING 164
SWIDTH 500 0
DWIDTH 8 0
BBX 7 12 0 0
BITMAP
C6
C6
38
38
44
44
44
44
38
38
C6
C6
ENDCHAR
STARTCHAR yen
ENCODING 165
SWIDTH 500 0
DWIDTH 8 0
BBX 5 14 1 0
BITMAP
88
88
50
50
F8
F8
20
20
F8
F8
20
20
20
20
ENDCHAR
STARTCHAR brokenbar
ENCODING 166
SWIDTH 500 0
DWIDTH 8 0
BBX 1 14 3 0
BITMAP
80
80
80
80
80
80
00
00
80
80
80
80
80
80
ENDCHAR
STARTCHAR section
ENCODING 167
SWIDTH 500 0
DWIDTH 8 0
BBX 8 16 0 -2
BITMAP
3E
3E
63
63
38
38
44
44
44
44
38
38
CC
CC
78
78
ENDCHAR
STARTCHAR dieresis
ENCODING 168
SWIDTH 500 0
DWIDTH 8 0
BBX 5 2 1 12
BITMAP
88
88
ENDCHAR
STARTCHAR copyright
ENCODING 169
SWIDTH 500 0
DWIDTH 8 0
BBX 7 16 0 -2
BITMAP
7C
7C
82
82
9A
9A
A2
A2
A2
A2
9A
9A
82
82
7C
7C
ENDCHAR
STARTCHAR ordfeminine
ENCODING 170
SWIDTH 500 0
DWIDTH 8 0
BBX 6 12 1 2
BITMAP
78
78
88
88
88
88
7C
7C
00
00
FC
FC
ENDCHAR
STARTCHAR guillemotleft
ENCODING 171
SWIDTH 500 0
DWIDTH 8 0
BBX 6 10 1 2
BITMAP
24
24
48
48
90
90
48
48
24
24
ENDCHAR
STARTCHAR logicalnot
ENCODING 172
SWIDTH 500 0
DWIDTH 8 0
BBX 6 6 1 2
BITMAP
FC
FC
04
04
04
04
ENDCHAR
STARTCHAR uni00AD
ENCODING 173
SWIDTH 500 0
DWIDTH 8 0
BBX 6 2 1 6
BITMAP
FC
FC
ENDCHAR
STARTCHAR registered
ENCODING 174
SWIDTH 500 0
DWIDTH 8 0
BBX 7 16 0 -2
BITMAP
7C
7C
82
82
B2
B2
AA
AA
B2
B2
AA
AA
82
82
7C
7C
ENDCHAR
STARTCHAR macron
ENCODING 175
SWIDTH 500 0
DWIDTH 8 0
BBX 8 2 0 12
BITMAP
FF
FF
ENDCHAR
STARTCHAR degree
ENCODING 176
SWIDTH 500 0
DWIDTH 8 0
BBX 4 8 1 6
BITMAP
60
60
90
90
90
90
60
60
ENDCHAR
STARTCHAR plusminus
ENCODING 177
SWIDTH 500 0
DWIDTH 8 0
BBX 5 14 1 0
BITMAP
20
20
20
20
F8
F8
20
20
20
20
00
00
F8
F8
ENDCHAR
STARTCHAR uni00B2
ENCODING 178
SWIDTH 500 0
DWIDTH 8 0
BBX 4 10 1 4
BITMAP
60
60
90
90
20
20
40
40
F0
F0
ENDCHAR
STARTCHAR uni00B3
ENCODING 179
SWIDTH 500 0
DWIDTH 8 0
BBX 4 10 1 4
BITMAP
60
60
90
90
20
20
90
90
60
60
ENDCHAR
STARTCHAR acute
ENCODING 180
SWIDTH 500 0
DWIDTH 8 0
BBX 2 4 3 10
BITMAP
40
40
80
80
ENDCHAR
STARTCHAR mu
ENCODING 181
SWIDTH 500 0
DWIDTH 8 0
BBX 7 14 0 -2
BITMAP
44
44
44
44
44
44
7A
7A
40
40
40
40
80
80
ENDCHAR
STARTCHAR paragraph
ENCODING 182
SWIDTH 500 0
DWIDTH 8 0
BBX 8 14 0 0
BITMAP
7F
7F
92
92
92
92
72
72
12
12
12
12
12
12
ENDCHAR
STARTCHAR periodcentered
ENCODING 183
SWIDTH 500 0
DWIDTH 8 0
BBX 2 2 3 4
BITMAP
C0
C0
ENDCHAR
STARTCHAR cedilla
ENCODING 184
SWIDTH 500 0
DWIDTH 8 0
BBX 4 6 2 -2
BITMAP
20
20
10
10
E0
E0
ENDCHAR
STARTCHAR uni00B9
ENCODING 185
SWIDTH 500 0
DWIDTH 8 0
BBX 3 10 1 4
BITMAP
40
40
C0
C0
40
40
40
40
E0
E0
ENDCHAR
STARTCHAR ordmasculine
ENCODING 186
SWIDTH 500 0
DWIDTH 8 0
BBX 5 12 1 2
BITMAP
70
70
88
88
88
88
70
70
00
00
F8
F8
ENDCHAR
STARTCHAR guillemotright
ENCODING 187
SWIDTH 500 0
DWIDTH 8 0
BBX 6 10 1 2
BITMAP
90
90
48
48
24
24
48
48
90
90
ENDCHAR
STARTCHAR onequarter
ENCODING 188
SWIDTH 500 0
DWIDTH 8 0
BBX 8 16 0 -2
BITMAP
42
42
C4
C4
4A
4A
F6
F6
2A
2A
5F
5F
82
82
02
02
ENDCHAR
STARTCHAR onehalf
ENCODING 189
SWIDTH 500 0
DWIDTH 8 0
BBX 8 16 0 -2
BITMAP
42
42
C4
C4
48
48
F6
F6
29
29
43
43
8C
8C
1F
1F
ENDCHAR
STARTCHAR threequarters
ENCODING 190
SWIDTH 500 0
DWIDTH 8 0
BBX 8 16 0 -2
BITMAP
C0
C0
22
22
C4
C4
2A
2A
D6
D6
2A
2A
5F
5F
82
82
ENDCHAR
STARTCHAR questiondown
ENCODING 191
SWIDTH 500 0
DWIDTH 8 0
BBX 6 14 1 0
BITMAP
20
20
00
00
20
20
40
40
80
80
84
84
78
78
ENDCHAR
STARTCHAR Agrave
ENCODING 192
SWIDTH 500 0
DWIDTH 8 0
BBX 7 14 0 0
BITMAP
C0
C0
18
18
24
24
42
42
7E
7E
42
42
42
42
ENDCHAR
STARTCHAR Aacute
ENCODING 193
SWIDTH 500 0
DWIDTH 8 0
BBX 7 14 1 0
BITMAP
06
06
30
30
48
48
84
84
FC
FC
84
84
84
84
ENDCHAR
STARTCHAR Acircumflex
ENCODING 194
SWIDTH 500 0
DWIDTH 8 0
BBX 6 14 1 0
BITMAP
78
78
84
84
30
30
48
48
84
84
FC
FC
84
84
ENDCHAR
STARTCHAR Atilde
ENCODING 195
SWIDTH 500 0
DWIDTH 8 0
BBX 6 14 1 0
BITMAP
FC
FC
00
00
78
78
84
84
FC
FC
84
84
84
84
ENDCHAR
STARTCHAR Adieresis
ENCODING 196
SWIDTH 500 0
DWIDTH 8 0
BBX 6 14 1 0
BITMAP
84
84
30
30
48
48
84
84
FC
FC
84
84
84
84
ENDCHAR
STARTCHAR Aring
ENCODING 197
SWIDTH 500 0
DWIDTH 8 0
BBX 6 14 1 0
BITMAP
30
30
30
30
00
00
78
78
84
84
FC
FC
84
84
ENDCHAR
STARTCHAR AE
ENCODING 198
SWIDTH 500 0
DWIDTH 8 0
BBX 7 14 1 0
BITMAP
3E
3E
48
48
88
88
FE
FE
88
88
88
88
8E
8E
ENDCHAR
STARTCHAR Ccedilla
ENCODING 199
SWIDTH 500 0
DWIDTH 8 0
BBX 6 16 1 -2
BITMAP
78
78
84
84
80
80
84
84
78
78
18
18
04
04
78
78
ENDCHAR
STARTCHAR Egrave
ENCODING 200
SWIDTH 500 0
DWIDTH 8 0
BBX 5 14 1 0
BITMAP
C0
C0
00
00
F8
F8
40
40
70
70
40
40
F8
F8
ENDCHAR
STARTCHAR Eacute
ENCODING 201
SWIDTH 500 0
DWIDTH 8 0
BBX 5 14 1 0
BITMAP
18
18
00
00
F8
F8
40
40
70
70
40
40
F8
F8
ENDCHAR
STARTCHAR Ecircumflex
ENCODING 202
SWIDTH 500 0
DWIDTH 8 0
BBX 7 14 0 0
BITMAP
7C
7C
82
82
7C
7C
20
20
38
38
20
20
7C
7C
ENDCHAR
STARTCHAR Edieresis
ENCODING 203
SWIDTH 500 0
DWIDTH 8 0
BBX 5 14 1 0
BITMAP
88
88
00
00
F8
F8
40
40
70
70
40
40
F8
F8
ENDCHAR
STARTCHAR Igrave
ENCODING 204
SWIDTH 500 0
DWIDTH 8 0
BBX 4 14 1 0
BITMAP
C0
C0
00
00
70
70
20
20
20
20
20
20
70
70
ENDCHAR
STARTCHAR Iacute
ENCODING 205
SWIDTH 500 0
DWIDTH 8 0
BBX 4 14 2 0
BITMAP
30
30
00
00
E0
E0
40
40
40
40
40
40
E0
E0
ENDCHAR
STARTCHAR Icircumflex
ENCODING 206
SWIDTH 500 0
DWIDTH 8 0
BBX 7 14 0 0
BITMAP
7C
7C
82
82
38
38
10
10
10
10
10
10
38
38
ENDCHAR
STARTCHAR Idieresis
ENCODING 207
SWIDTH 500 0
DWIDTH 8 0
BBX 5 14 1 0
BITMAP
88
88
00
00
70
70
20
20
20
20
20
20
70
70
ENDCHAR
STARTCHAR Eth
ENCODING 208
SWIDTH 500 0
DWIDTH 8 0
BBX 6 14 1 0
BITMAP
F0
F0
48
48
44
44
E4
E4
44
44
48
48
F0
F0
ENDCHAR
STARTCHAR Ntilde
ENCODING 209
SWIDTH 500 0
DWIDTH 8 0
BBX 6 14 1 0
BITMAP
68
68
98
98
00
00
C4
C4
A4
A4
94
94
8C
8C
ENDCHAR
STARTCHAR Ograve
ENCODING 210
SWIDTH 500 0
DWIDTH 8 0
BBX 7 14 0 0
BITMAP
C0
C0
18
18
24
24
42
42
42
42
24
24
18
18
ENDCHAR
STARTCHAR Oacute
ENCODING 211
SWIDTH 500 0
DWIDTH 8 0
BBX 7 14 1 0
BITMAP
06
06
30
30
48
48
84
84
84
84
48
48
30
30
ENDCHAR
STARTCHAR Ocircumflex
ENCODING 212
SWIDTH 500 0
DWIDTH 8 0
BBX 7 14 0 0
BITMAP
7C
7C
82
82
38
38
44
44
82
82
44
44
38
38
ENDCHAR
STARTCHAR Otilde
ENCODING 213
SWIDTH 500 0
DWIDTH 8 0
BBX 7 14 1 0
BITMAP
FE
FE
00
00
38
38
44
44
82
82
44
44
38
38
ENDCHAR
STARTCHAR Odieresis
ENCODING 214
SWIDTH 500 0
DWIDTH 8 0
BBX 6 14 1 0
BITMAP
84
84
30
30
48
48
84
84
84
84
48
48
30
30
ENDCHAR
STARTCHAR multiply
ENCODING 215
SWIDTH 500 0
DWIDTH 8 0
BBX 5 10 1 2
BITMAP
88
88
50
50
20
20
50
50
88
88
ENDCHAR
STARTCHAR Oslash
ENCODING 216
SWIDTH 500 0
DWIDTH 8 0
BBX 7 14 0 0
BITMAP
7C
7C
86
86
8E
8E
BA
BA
E2
E2
C2
C2
7C
7C
ENDCHAR
STARTCHAR Ugrave
ENCODING 217
SWIDTH 500 0
DWIDTH 8 0
BBX 6 14 1 0
BITMAP
C0
C0
00
00
84
84
84
84
84
84
84
84
78
78
ENDCHAR
STARTCHAR Uacute
ENCODING 218
SWIDTH 500 0
DWIDTH 8 0
BBX 6 14 1 0
BITMAP
0C
0C
00
00
84
84
84
84
84
84
84
84
78
78
ENDCHAR
STARTCHAR Ucircumflex
ENCODING 219
SWIDTH 500 0
DWIDTH 8 0
BBX 6 14 1 0
BITMAP
78
78
84
84
00
00
84
84
84
84
84
84
78
78
ENDCHAR
STARTCHAR Udieresis
ENCODING 220
SWIDTH 500 0
DWIDTH 8 0
BBX 6 14 1 0
BITMAP
84
84
00
00
84
84
84
84
84
84
84
84
78
78
ENDCHAR
STARTCHAR Yacute
ENCODING 221
SWIDTH 500 0
DWIDTH 8 0
BBX 6 14 1 0
BITMAP
0C
0C
00
00
88
88
50
50
20
20
20
20
70
70
ENDCHAR
STARTCHAR Thorn
ENCODING 222
SWIDTH 500 0
DWIDTH 8 0
BBX 6 14 1 0
BITMAP
E0
E0
40
40
78
78
44
44
78
78
40
40
E0
E0
ENDCHAR
STARTCHAR germandbls
ENCODING 223
SWIDTH 500 0
DWIDTH 8 0
BBX 6 14 1 0
BITMAP
70
70
88
88
88
88
90
90
88
88
84
84
98
98
ENDCHAR
STARTCHAR agrave
ENCODING 224
SWIDTH 500 0
DWIDTH 8 0
BBX 6 14 1 0
BITMAP
60
60
00
00
70
70
08
08
78
78
88
88
7C
7C
ENDCHAR
STARTCHAR aacute
ENCODING 225
SWIDTH 500 0
DWIDTH 8 0
BBX 6 14 1 0
BITMAP
18
18
00
00
70
70
08
08
78
78
88
88
7C
7C
ENDCHAR
STARTCHAR acircumflex
ENCODING 226
SWIDTH 500 0
DWIDTH 8 0
BBX 6 14 1 0
BITMAP
78
78
84
84
70
70
08
08
78
78
88
88
7C
7C
ENDCHAR
STARTCHAR atilde
ENCODING 227
SWIDTH 500 0
DWIDTH 8 0
BBX 7 14 1 0
BITMAP
FC
FC
00
00
78
78
04
04
7C
7C
84
84
7E
7E
ENDCHAR
STARTCHAR adieresis
ENCODING 228
SWIDTH 500 0
DWIDTH 8 0
BBX 6 14 1 0
BITMAP
84
84
00
00
70
70
08
08
78
78
88
88
7C
7C
ENDCHAR
STARTCHAR aring
ENCODING 229
SWIDTH 500 0
DWIDTH 8 0
BBX 6 14 1 0
BITMAP
20
20
00
00
70
70
08
08
78
78
88
88
7C
7C
ENDCHAR
STARTCHAR ae
ENCODING 230
SWIDTH 500 0
DWIDTH 8 0
BBX 7 10 1 0
BITMAP
66
66
18
18
7E
7E
98
98
76
76
ENDCHAR
STARTCHAR ccedilla
ENCODING 231
SWIDTH 500 0
DWIDTH 8 0
BBX 6 12 1 -2
BITMAP
78
78
80
80
80
80
78
78
0C
0C
38
38
ENDCHAR
STARTCHAR egrave
ENCODING 232
SWIDTH 500 0
DWIDTH 8 0
BBX 6 14 1 0
BITMAP
60
60
00
00
78
78
84
84
FC
FC
80
80
78
78
ENDCHAR
STARTCHAR eacute
ENCODING 233
SWIDTH 500 0
DWIDTH 8 0
BBX 6 14 1 0
BITMAP
18
18
00
00
78
78
84
84
FC
FC
80
80
78
78
ENDCHAR
STARTCHAR ecircumflex
ENCODING 234
SWIDTH 500 0
DWIDTH 8 0
BBX 6 14 1 0
BITMAP
78
78
84
84
78
78
84
84
FC
FC
80
80
78
78
ENDCHAR
STARTCHAR edieresis
ENCODING 235
SWIDTH 500 0
DWIDTH 8 0
BBX 6 14 1 0
BITMAP
84
84
00
00
78
78
84
84
FC
FC
80
80
78
78
ENDCHAR
STARTCHAR igrave
ENCODING 236
SWIDTH 500 0
DWIDTH 8 0
BBX 4 14 2 0
BITMAP
C0
C0
00
00
60
60
20
20
20
20
20
20
70
70
ENDCHAR
STARTCHAR iacute
ENCODING 237
SWIDTH 500 0
DWIDTH 8 0
BBX 3 14 3 0
BITMAP
60
60
00
00
C0
C0
40
40
40
40
40
40
E0
E0
ENDCHAR
STARTCHAR icircumflex
ENCODING 238
SWIDTH 500 0
DWIDTH 8 0
BBX 6 14 0 0
BITMAP
78
78
84
84
30
30
10
10
10
10
10
10
38
38
ENDCHAR
STARTCHAR idieresis
ENCODING 239
SWIDTH 500 0
DWIDTH 8 0
BBX 4 14 2 0
BITMAP
90
90
00
00
60
60
20
20
20
20
20
20
70
70
ENDCHAR
STARTCHAR eth
ENCODING 240
SWIDTH 500 0
DWIDTH 8 0
BBX 6 14 1 0
BITMAP
10
10
7C
7C
08
08
78
78
88
88
88
88
70
70
ENDCHAR
STARTCHAR ntilde
ENCODING 241
SWIDTH 500 0
DWIDTH 8 0
BBX 6 14 1 0
BITMAP
64
64
98
98
00
00
F8
F8
84
84
84
84
84
84
ENDCHAR
STARTCHAR ograve
ENCODING 242
SWIDTH 500 0
DWIDTH 8 0
BBX 6 14 1 0
BITMAP
40
40
20
20
00
00
78
78
84
84
84
84
78
78
ENDCHAR
STARTCHAR oacute
ENCODING 243
SWIDTH 500 0
DWIDTH 8 0
BBX 6 14 1 0
BITMAP
08
08
10
10
00
00
78
78
84
84
84
84
78
78
ENDCHAR
STARTCHAR ocircumflex
ENCODING 244
SWIDTH 500 0
DWIDTH 8 0
BBX 6 14 1 0
BITMAP
30
30
48
48
00
00
78
78
84
84
84
84
78
78
ENDCHAR
STARTCHAR otilde
ENCODING 245
SWIDTH 500 0
DWIDTH 8 0
BBX 6 12 1 0
BITMAP
FC
FC
00
00
78
78
84
84
84
84
78
78
ENDCHAR
STARTCHAR odieresis
ENCODING 246
SWIDTH 500 0
DWIDTH 8 0
BBX 6 12 1 0
BITMAP
84
84
00
00
78
78
84
84
84
84
78
78
ENDCHAR
STARTCHAR divide
ENCODING 247
SWIDTH 500 0
DWIDTH 8 0
BBX 6 14 1 0
BITMAP
30
30
30
30
00
00
FC
FC
00
00
30
30
30
30
ENDCHAR
STARTCHAR oslash
ENCODING 248
SWIDTH 500 0
DWIDTH 8 0
BBX 7 14 0 -2
BITMAP
02
02
7C
7C
8A
8A
92
92
A2
A2
7C
7C
80
80
ENDCHAR
STARTCHAR ugrave
ENCODING 249
SWIDTH 500 0
DWIDTH 8 0
BBX 6 14 1 0
BITMAP
40
40
20
20
00
00
84
84
84
84
84
84
78
78
ENDCHAR
STARTCHAR uacute
ENCODING 250
SWIDTH 500 0
DWIDTH 8 0
BBX 6 12 1 0
BITMAP
08
08
10
10
84
84
84
84
84
84
78
78
ENDCHAR
STARTCHAR ucircumflex
ENCODING 251
SWIDTH 500 0
DWIDTH 8 0
BBX 6 14 1 0
BITMAP
30
30
48
48
00
00
84
84
84
84
84
84
78
78
ENDCHAR
STARTCHAR udieresis
ENCODING 252
SWIDTH 500 0
DWIDTH 8 0
BBX 6 12 1 0
BITMAP
88
88
00
00
88
88
88
88
88
88
7C
7C
ENDCHAR
STARTCHAR yacute
ENCODING 253
SWIDTH 500 0
DWIDTH 8 0
BBX 6 14 1 -2
BITMAP
0C
0C
00
00
84
84
84
84
7C
7C
04
04
78
78
ENDCHAR
STARTCHAR thorn
ENCODING 254
SWIDTH 500 0
DWIDTH 8 0
BBX 6 16 1 -2
BITMAP
C0
C0
40
40
78
78
44
44
44
44
78
78
40
40
E0
E0
ENDCHAR
STARTCHAR ydieresis
ENCODING 255
SWIDTH 500 0
DWIDTH 8 0
BBX 6 14 1 -2
BITMAP
84
84
00
00
84
84
84
84
7C
7C
04
04
78
78
ENDCHAR
STARTCHAR Amacron
ENCODING 256
SWIDTH 500 0
DWIDTH 8 0
BBX 6 14 1 0
BITMAP
FC
FC
00
00
78
78
84
84
FC
FC
84
84
84
84
ENDCHAR
STARTCHAR amacron
ENCODING 257
SWIDTH 500 0
DWIDTH 8 0
BBX 6 14 1 0
BITMAP
FC
FC
00
00
70
70
08
08
78
78
88
88
7C
7C
ENDCHAR
STARTCHAR Abreve
ENCODING 258
SWIDTH 500 0
DWIDTH 8 0
BBX 6 14 1 0
BITMAP
48
48
30
30
00
00
78
78
84
84
FC
FC
84
84
ENDCHAR
STARTCHAR abreve
ENCODING 259
SWIDTH 500 0
DWIDTH 8 0
BBX 6 14 1 0
BITMAP
48
48
30
30
70
70
08
08
78
78
88
88
7C
7C
ENDCHAR
STARTCHAR Aogonek
ENCODING 260
SWIDTH 500 0
DWIDTH 8 0
BBX 7 16 1 -2
BITMAP
30
30
48
48
84
84
84
84
FC
FC
84
84
8C
8C
0E
0E
ENDCHAR
STARTCHAR aogonek
ENCODING 261
SWIDTH 500 0
DWIDTH 8 0
BBX 7 12 1 -2
BITMAP
70
70
08
08
78
78
88
88
78
78
0E
0E
ENDCHAR
STARTCHAR Cacute
ENCODING 262
SWIDTH 500 0
DWIDTH 8 0
BBX 7 14 1 0
BITMAP
06
06
38
38
44
44
80
80
80
80
44
44
38
38
ENDCHAR
STARTCHAR cacute
ENCODING 263
SWIDTH 500 0
DWIDTH 8 0
BBX 6 14 1 0
BITMAP
0C
0C
00
00
78
78
84
84
80
80
84
84
78
78
ENDCHAR
STARTCHAR Ccircumflex
ENCODING 264
SWIDTH 500 0
DWIDTH 8 0
BBX 7 14 1 0
BITMAP
7C
7C
82
82
38
38
44
44
80
80
44
44
38
38
ENDCHAR
STARTCHAR ccircumflex
ENCODING 265
SWIDTH 500 0
DWIDTH 8 0
BBX 7 12 1 0
BITMAP
7C
7C
82
82
38
38
40
40
40
40
38
38
ENDCHAR
STARTCHAR Cdotaccent
ENCODING 266
SWIDTH 500 0
DWIDTH 8 0
BBX 6 14 1 0
BITMAP
10
10
38
38
44
44
80
80
80
80
44
44
38
38
ENDCHAR
STARTCHAR cdotaccent
ENCODING 267
SWIDTH 500 0
DWIDTH 8 0
BBX 6 14 1 0
BITMAP
10
10
00
00
78
78
84
84
80
80
84
84
78
78
ENDCHAR
STARTCHAR Ccaron
ENCODING 268
SWIDTH 500 0
DWIDTH 8 0
BBX 7 14 0 0
BITMAP
24
24
18
18
3C
3C
42
42
80
80
42
42
3C
3C
ENDCHAR
STARTCHAR ccaron
ENCODING 269
SWIDTH 500 0
DWIDTH 8 0
BBX 5 14 1 0
BITMAP
48
48
30
30
00
00
78
78
80
80
80
80
78
78
ENDCHAR
STARTCHAR Dcaron
ENCODING 270
SWIDTH 500 0
DWIDTH 8 0
BBX 6 14 1 0
BITMAP
48
48
30
30
F8
F8
44
44
44
44
44
44
F8
F8
ENDCHAR
STARTCHAR dcaron
ENCODING 271
SWIDTH 500 0
DWIDTH 8 0
BBX 7 14 1 0
BITMAP
AC
AC
44
44
04
04
74
74
8C
8C
8C
8C
76
76
ENDCHAR
STARTCHAR Dcroat
ENCODING 272
SWIDTH 500 0
DWIDTH 8 0
BBX 6 14 1 0
BITMAP
F0
F0
48
48
E4
E4
E4
E4
44
44
48
48
F0
F0
ENDCHAR
STARTCHAR dcroat
ENCODING 273
SWIDTH 500 0
DWIDTH 8 0
BBX 7 14 1 0
BITMAP
04
04
1E
1E
04
04
74
74
8C
8C
8C
8C
76
76
ENDCHAR
STARTCHAR Emacron
ENCODING 274
SWIDTH 500 0
DWIDTH 8 0
BBX 5 14 1 0
BITMAP
F8
F8
00
00
F8
F8
40
40
70
70
40
40
F8
F8
ENDCHAR
STARTCHAR emacron
ENCODING 275
SWIDTH 500 0
DWIDTH 8 0
BBX 6 14 1 0
BITMAP
FC
FC
00
00
78
78
84
84
FC
FC
80
80
78
78
ENDCHAR
STARTCHAR Ebreve
ENCODING 276
SWIDTH 500 0
DWIDTH 8 0
BBX 7 14 0 0
BITMAP
82
82
7C
7C
7C
7C
20
20
38
38
20
20
7C
7C
ENDCHAR
STARTCHAR ebreve
ENCODING 277
SWIDTH 500 0
DWIDTH 8 0
BBX 8 14 0 0
BITMAP
81
81
7E
7E
3C
3C
42
42
7E
7E
40
40
3C
3C
ENDCHAR
STARTCHAR Edotaccent
ENCODING 278
SWIDTH 500 0
DWIDTH 8 0
BBX 5 14 1 0
BITMAP
20
20
00
00
F8
F8
40
40
70
70
40
40
F8
F8
ENDCHAR
STARTCHAR edotaccent
ENCODING 279
SWIDTH 500 0
DWIDTH 8 0
BBX 6 14 1 0
BITMAP
10
10
00
00
78
78
84
84
FC
FC
80
80
78
78
ENDCHAR
STARTCHAR Eogonek
ENCODING 280
SWIDTH 500 0
DWIDTH 8 0
BBX 7 16 1 -2
BITMAP
FC
FC
44
44
50
50
70
70
50
50
44
44
FC
FC
0E
0E
ENDCHAR
STARTCHAR eogonek
ENCODING 281
SWIDTH 500 0
DWIDTH 8 0
BBX 6 12 1 -2
BITMAP
78
78
84
84
FC
FC
80
80
78
78
1C
1C
ENDCHAR
STARTCHAR Ecaron
ENCODING 282
SWIDTH 500 0
DWIDTH 8 0
BBX 5 14 1 0
BITMAP
88
88
70
70
F8
F8
40
40
70
70
40
40
F8
F8
ENDCHAR
STARTCHAR ecaron
ENCODING 283
SWIDTH 500 0
DWIDTH 8 0
BBX 6 14 1 0
BITMAP
48
48
30
30
78
78
84
84
FC
FC
80
80
78
78
ENDCHAR
STARTCHAR Gcircumflex
ENCODING 284
SWIDTH 500 0
DWIDTH 8 0
BBX 7 14 1 0
BITMAP
7C
7C
82
82
3C
3C
40
40
9C
9C
44
44
3C
3C
ENDCHAR
STARTCHAR gcircumflex
ENCODING 285
SWIDTH 500 0
DWIDTH 8 0
BBX 7 16 1 -2
BITMAP
30
30
48
48
00
00
7A
7A
84
84
7C
7C
04
04
78
78
ENDCHAR
STARTCHAR Gbreve
ENCODING 286
SWIDTH 500 0
DWIDTH 8 0
BBX 7 14 1 0
BITMAP
82
82
7C
7C
3C
3C
40
40
9C
9C
44
44
3C
3C
ENDCHAR
STARTCHAR gbreve
ENCODING 287
SWIDTH 500 0
DWIDTH 8 0
BBX 7 16 1 -2
BITMAP
82
82
7C
7C
00
00
7A
7A
84
84
7C
7C
04
04
78
78
ENDCHAR
STARTCHAR Gdotaccent
ENCODING 288
SWIDTH 500 0
DWIDTH 8 0
BBX 6 14 1 0
BITMAP
10
10
38
38
44
44
80
80
9C
9C
44
44
3C
3C
ENDCHAR
STARTCHAR gdotaccent
ENCODING 289
SWIDTH 500 0
DWIDTH 8 0
BBX 7 16 1 -2
BITMAP
10
10
00
00
7A
7A
84
84
84
84
7C
7C
04
04
F8
F8
ENDCHAR
STARTCHAR Gcommaaccent
ENCODING 290
SWIDTH 500 0
DWIDTH 8 0
BBX 6 16 1 -2
BITMAP
38
38
44
44
80
80
9C
9C
44
44
3C
3C
08
08
70
70
ENDCHAR
STARTCHAR gcommaaccent
ENCODING 291
SWIDTH 500 0
DWIDTH 8 0
BBX 7 16 1 -2
BITMAP
0E
0E
10
10
7A
7A
84
84
84
84
7C
7C
04
04
F8
F8
ENDCHAR
STARTCHAR Hcircumflex
ENCODING 292
SWIDTH 500 0
DWIDTH 8 0
BBX 7 14 1 0
BITMAP
10
10
AA
AA
82
82
82
82
FE
FE
82
82
82
82
ENDCHAR
STARTCHAR hcircumflex
ENCODING 293
SWIDTH 500 0
DWIDTH 8 0
BBX 6 14 1 0
BITMAP
C8
C8
54
54
40
40
58
58
64
64
44
44
C4
C4
ENDCHAR
STARTCHAR Hbar
ENCODING 294
SWIDTH 500 0
DWIDTH 8 0
BBX 7 14 1 0
BITMAP
44
44
FE
FE
44
44
7C
7C
44
44
44
44
44
44
ENDCHAR
STARTCHAR hbar
ENCODING 295
SWIDTH 500 0
DWIDTH 8 0
BBX 6 14 1 0
BITMAP
C0
C0
40
40
E0
E0
58
58
64
64
44
44
C4
C4
ENDCHAR
STARTCHAR Itilde
ENCODING 296
SWIDTH 500 0
DWIDTH 8 0
BBX 5 14 1 0
BITMAP
F8
F8
00
00
70
70
20
20
20
20
20
20
70
70
ENDCHAR
STARTCHAR itilde
ENCODING 297
SWIDTH 500 0
DWIDTH 8 0
BBX 4 14 1 0
BITMAP
F0
F0
00
00
60
60
20
20
20
20
20
20
70
70
ENDCHAR
STARTCHAR Imacron
ENCODING 298
SWIDTH 500 0
DWIDTH 8 0
BBX 5 14 1 0
BITMAP
F8
F8
00
00
70
70
20
20
20
20
20
20
70
70
ENDCHAR
STARTCHAR imacron
ENCODING 299
SWIDTH 500 0
DWIDTH 8 0
BBX 5 14 1 0
BITMAP
F8
F8
00
00
60
60
20
20
20
20
20
20
70
70
ENDCHAR
STARTCHAR Ibreve
ENCODING 300
SWIDTH 500 0
DWIDTH 8 0
BBX 5 14 1 0
BITMAP
88
88
70
70
00
00
70
70
20
20
20
20
70
70
ENDCHAR
STARTCHAR ibreve
ENCODING 301
SWIDTH 500 0
DWIDTH 8 0
BBX 5 14 1 0
BITMAP
88
88
70
70
00
00
60
60
20
20
20
20
70
70
ENDCHAR
STARTCHAR Iogonek
ENCODING 302
SWIDTH 500 0
DWIDTH 8 0
BBX 5 16 2 -2
BITMAP
E0
E0
40
40
40
40
40
40
40
40
40
40
E0
E0
38
38
ENDCHAR
STARTCHAR iogonek
ENCODING 303
SWIDTH 500 0
DWIDTH 8 0
BBX 5 16 2 -2
BITMAP
40
40
00
00
C0
C0
40
40
40
40
40
40
E0
E0
38
38
ENDCHAR
STARTCHAR Idotaccent
ENCODING 304
SWIDTH 500 0
DWIDTH 8 0
BBX 3 14 2 0
BITMAP
40
40
00
00
E0
E0
40
40
40
40
40
40
E0
E0
ENDCHAR
STARTCHAR dotlessi
ENCODING 305
SWIDTH 500 0
DWIDTH 8 0
BBX 3 10 2 0
BITMAP
C0
C0
40
40
40
40
40
40
E0
E0
ENDCHAR
STARTCHAR IJ
ENCODING 306
SWIDTH 500 0
DWIDTH 8 0
BBX 8 14 0 0
BITMAP
E7
E7
42
42
42
42
42
42
4A
4A
4A
4A
E4
E4
ENDCHAR
STARTCHAR ij
ENCODING 307
SWIDTH 500 0
DWIDTH 8 0
BBX 7 16 1 -2
BITMAP
42
42
00
00
C6
C6
42
42
42
42
52
52
F2
F2
0C
0C
ENDCHAR
STARTCHAR Jcircumflex
ENCODING 308
SWIDTH 500 0
DWIDTH 8 0
BBX 7 14 1 0
BITMAP
7C
7C
82
82
38
38
10
10
10
10
90
90
60
60
ENDCHAR
STARTCHAR jcircumflex
ENCODING 309
SWIDTH 500 0
DWIDTH 8 0
BBX 7 16 1 -2
BITMAP
1C
1C
22
22
08
08
08
08
08
08
88
88
88
88
70
70
ENDCHAR
STARTCHAR Kcommaaccent
ENCODING 310
SWIDTH 500 0
DWIDTH 8 0
BBX 7 16 1 -2
BITMAP
C4
C4
48
48
50
50
60
60
50
50
48
48
C6
C6
1C
1C
ENDCHAR
STARTCHAR kcommaaccent
ENCODING 311
SWIDTH 500 0
DWIDTH 8 0
BBX 6 16 1 -2
BITMAP
C0
C0
40
40
48
48
50
50
60
60
50
50
CC
CC
18
18
ENDCHAR
STARTCHAR kgreenlandic
ENCODING 312
SWIDTH 500 0
DWIDTH 8 0
BBX 7 10 1 0
BITMAP
C4
C4
48
48
70
70
48
48
46
46
ENDCHAR
STARTCHAR Lacute
ENCODING 313
SWIDTH 500 0
DWIDTH 8 0
BBX 6 14 1 0
BITMAP
E4
E4
48
48
40
40
40
40
40
40
44
44
FC
FC
ENDCHAR
STARTCHAR lacute
ENCODING 314
SWIDTH 500 0
DWIDTH 8 0
BBX 5 14 2 0
BITMAP
C8
C8
50
50
40
40
40
40
40
40
40
40
E0
E0
ENDCHAR
STARTCHAR Lcommaaccent
ENCODING 315
SWIDTH 500 0
DWIDTH 8 0
BBX 6 16 1 -2
BITMAP
E0
E0
40
40
40
40
40
40
44
44
FC
FC
08
08
70
70
ENDCHAR
STARTCHAR lcommaaccent
ENCODING 316
SWIDTH 500 0
DWIDTH 8 0
BBX 4 16 2 -2
BITMAP
C0
C0
40
40
40
40
40
40
40
40
E0
E0
10
10
E0
E0
ENDCHAR
STARTCHAR Lcaron
ENCODING 317
SWIDTH 500 0
DWIDTH 8 0
BBX 7 14 1 0
BITMAP
EA
EA
44
44
40
40
40
40
40
40
44
44
FC
FC
ENDCHAR
STARTCHAR lcaron
ENCODING 318
SWIDTH 500 0
DWIDTH 8 0
BBX 6 14 1 0
BITMAP
D4
D4
48
48
40
40
40
40
40
40
40
40
E0
E0
ENDCHAR
STARTCHAR Ldot
ENCODING 319
SWIDTH 500 0
DWIDTH 8 0
BBX 7 14 0 0
BITMAP
E0
E0
40
40
46
46
40
40
42
42
46
46
FE
FE
ENDCHAR
STARTCHAR ldot
ENCODING 320
SWIDTH 500 0
DWIDTH 8 0
BBX 5 14 1 0
BITMAP
C0
C0
40
40
40
40
48
48
40
40
40
40
E0
E0
ENDCHAR
STARTCHAR Lslash
ENCODING 321
SWIDTH 500 0
DWIDTH 8 0
BBX 7 14 0 0
BITMAP
70
70
20
20
30
30
60
60
A0
A0
22
22
7E
7E
ENDCHAR
STARTCHAR lslash
ENCODING 322
SWIDTH 500 0
DWIDTH 8 0
BBX 5 14 1 0
BITMAP
60
60
28
28
30
30
60
60
A0
A0
20
20
70
70
ENDCHAR
STARTCHAR Nacute
ENCODING 323
SWIDTH 500 0
DWIDTH 8 0
BBX 6 14 1 0
BITMAP
0C
0C
00
00
C4
C4
A4
A4
94
94
8C
8C
84
84
ENDCHAR
STARTCHAR nacute
ENCODING 324
SWIDTH 500 0
DWIDTH 8 0
BBX 6 14 1 0
BITMAP
0C
0C
00
00
B8
B8
C4
C4
84
84
84
84
84
84
ENDCHAR
STARTCHAR Ncommaaccent
ENCODING 325
SWIDTH 500 0
DWIDTH 8 0
BBX 7 16 1 -2
BITMAP
84
84
C4
C4
A4
A4
94
94
8C
8C
84
84
86
86
1C
1C
ENDCHAR
STARTCHAR ncommaaccent
ENCODING 326
SWIDTH 500 0
DWIDTH 8 0
BBX 7 12 1 -2
BITMAP
B8
B8
C4
C4
84
84
84
84
86
86
1E
1E
ENDCHAR
STARTCHAR Ncaron
ENCODING 327
SWIDTH 500 0
DWIDTH 8 0
BBX 6 14 1 0
BITMAP
48
48
30
30
C4
C4
A4
A4
94
94
8C
8C
84
84
ENDCHAR
STARTCHAR ncaron
ENCODING 328
SWIDTH 500 0
DWIDTH 8 0
BBX 6 14 1 0
BITMAP
48
48
30
30
00
00
F8
F8
84
84
84
84
84
84
ENDCHAR
STARTCHAR napostrophe
ENCODING 329
SWIDTH 500 0
DWIDTH 8 0
BBX 6 14 1 0
BITMAP
80
80
80
80
00
00
F8
F8
84
84
84
84
84
84
ENDCHAR
STARTCHAR Eng
ENCODING 330
SWIDTH 500 0
DWIDTH 8 0
BBX 6 16 1 -2
BITMAP
84
84
C4
C4
A4
A4
94
94
8C
8C
84
84
84
84
18
18
ENDCHAR
STARTCHAR eng
ENCODING 331
SWIDTH 500 0
DWIDTH 8 0
BBX 6 12 1 -2
BITMAP
B8
B8
C4
C4
84
84
84
84
84
84
18
18
ENDCHAR
STARTCHAR Omacron
ENCODING 332
SWIDTH 500 0
DWIDTH 8 0
BBX 7 14 1 0
BITMAP
FE
FE
00
00
38
38
44
44
82
82
44
44
38
38
ENDCHAR
STARTCHAR omacron
ENCODING 333
SWIDTH 500 0
DWIDTH 8 0
BBX 6 12 1 0
BITMAP
FC
FC
00
00
78
78
84
84
84
84
78
78
ENDCHAR
STARTCHAR Obreve
ENCODING 334
SWIDTH 500 0
DWIDTH 8 0
BBX 7 14 1 0
BITMAP
82
82
7C
7C
38
38
44
44
82
82
44
44
38
38
ENDCHAR
STARTCHAR obreve
ENCODING 335
SWIDTH 500 0
DWIDTH 8 0
BBX 6 14 1 0
BITMAP
84
84
78
78
00
00
78
78
84
84
84
84
78
78
ENDCHAR
STARTCHAR Ohungarumlaut
ENCODING 336
SWIDTH 500 0
DWIDTH 8 0
BBX 7 14 0 0
BITMAP
36
36
00
00
38
38
44
44
82
82
44
44
38
38
ENDCHAR
STARTCHAR ohungarumlaut
ENCODING 337
SWIDTH 500 0
DWIDTH 8 0
BBX 6 14 1 0
BITMAP
24
24
48
48
00
00
78
78
84
84
84
84
78
78
ENDCHAR
STARTCHAR OE
ENCODING 338
SWIDTH 500 0
DWIDTH 8 0
BBX 7 14 1 0
BITMAP
3E
3E
48
48
88
88
8E
8E
88
88
48
48
3E
3E
ENDCHAR
STARTCHAR oe
ENCODING 339
SWIDTH 500 0
DWIDTH 8 0
BBX 6 10 1 0
BITMAP
7C
7C
90
90
9C
9C
90
90
7C
7C
ENDCHAR
STARTCHAR Racute
ENCODING 340
SWIDTH 500 0
DWIDTH 8 0
BBX 6 14 1 0
BITMAP
0C
0C
00
00
F8
F8
44
44
78
78
50
50
CC
CC
ENDCHAR
STARTCHAR racute
ENCODING 341
SWIDTH 500 0
DWIDTH 8 0
BBX 6 14 1 0
BITMAP
0C
0C
00
00
D8
D8
64
64
44
44
40
40
E0
E0
ENDCHAR
STARTCHAR Rcommaaccent
ENCODING 342
SWIDTH 500 0
DWIDTH 8 0
BBX 7 16 1 -2
BITMAP
F8
F8
44
44
44
44
78
78
50
50
48
48
C6
C6
1C
1C
ENDCHAR
STARTCHAR rcommaaccent
ENCODING 343
SWIDTH 500 0
DWIDTH 8 0
BBX 6 12 1 -2
BITMAP
D8
D8
64
64
40
40
E0
E0
30
30
E0
E0
ENDCHAR
STARTCHAR Rcaron
ENCODING 344
SWIDTH 500 0
DWIDTH 8 0
BBX 6 14 1 0
BITMAP
48
48
30
30
F8
F8
44
44
78
78
50
50
CC
CC
ENDCHAR
STARTCHAR rcaron
ENCODING 345
SWIDTH 500 0
DWIDTH 8 0
BBX 6 14 1 0
BITMAP
48
48
30
30
D8
D8
64
64
44
44
40
40
E0
E0
ENDCHAR
STARTCHAR Sacute
ENCODING 346
SWIDTH 500 0
DWIDTH 8 0
BBX 7 14 1 0
BITMAP
76
76
88
88
80
80
70
70
08
08
88
88
70
70
ENDCHAR
STARTCHAR sacute
ENCODING 347
SWIDTH 500 0
DWIDTH 8 0
BBX 6 14 1 0
BITMAP
0C
0C
00
00
7C
7C
80
80
78
78
04
04
F8
F8
ENDCHAR
STARTCHAR Scircumflex
ENCODING 348
SWIDTH 500 0
DWIDTH 8 0
BBX 6 14 1 0
BITMAP
78
78
84
84
78
78
C4
C4
30
30
8C
8C
78
78
ENDCHAR
STARTCHAR scircumflex
ENCODING 349
SWIDTH 500 0
DWIDTH 8 0
BBX 6 14 1 0
BITMAP
30
30
48
48
00
00
78
78
E0
E0
1C
1C
78
78
ENDCHAR
STARTCHAR Scedilla
ENCODING 350
SWIDTH 500 0
DWIDTH 8 0
BBX 7 16 0 -2
BITMAP
3C
3C
42
42
40
40
3C
3C
02
02
42
42
3C
3C
E0
E0
ENDCHAR
STARTCHAR scedilla
ENCODING 351
SWIDTH 500 0
DWIDTH 8 0
BBX 7 12 0 -2
BITMAP
3E
3E
40
40
3C
3C
02
02
3C
3C
E0
E0
ENDCHAR
STARTCHAR Scaron
ENCODING 352
SWIDTH 500 0
DWIDTH 8 0
BBX 6 14 1 0
BITMAP
84
84
78
78
84
84
60
60
18
18
84
84
78
78
ENDCHAR
STARTCHAR scaron
ENCODING 353
SWIDTH 500 0
DWIDTH 8 0
BBX 6 14 1 0
BITMAP
44
44
38
38
7C
7C
80
80
78
78
04
04
F8
F8
ENDCHAR
STARTCHAR Tcommaaccent
ENCODING 354
SWIDTH 500 0
DWIDTH 8 0
BBX 7 16 1 -2
BITMAP
FE
FE
92
92
10
10
10
10
10
10
38
38
04
04
78
78
ENDCHAR
STARTCHAR tcommaaccent
ENCODING 355
SWIDTH 500 0
DWIDTH 8 0
BBX 6 16 1 -2
BITMAP
20
20
20
20
F8
F8
20
20
20
20
24
24
18
18
70
70
ENDCHAR
STARTCHAR Tcaron
ENCODING 356
SWIDTH 500 0
DWIDTH 8 0
BBX 7 14 1 0
BITMAP
44
44
38
38
FE
FE
92
92
10
10
10
10
38
38
ENDCHAR
STARTCHAR tcaron
ENCODING 357
SWIDTH 500 0
DWIDTH 8 0
BBX 6 14 1 0
BITMAP
88
88
70
70
20
20
F8
F8
20
20
24
24
18
18
ENDCHAR
STARTCHAR Tbar
ENCODING 358
SWIDTH 500 0
DWIDTH 8 0
BBX 7 14 1 0
BITMAP
FE
FE
92
92
10
10
7C
7C
10
10
10
10
38
38
ENDCHAR
STARTCHAR tbar
ENCODING 359
SWIDTH 500 0
DWIDTH 8 0
BBX 6 14 1 0
BITMAP
20
20
20
20
F8
F8
20
20
70
70
24
24
18
18
ENDCHAR
STARTCHAR Utilde
ENCODING 360
SWIDTH 500 0
DWIDTH 8 0
BBX 6 14 1 0
BITMAP
FC
FC
00
00
84
84
84
84
84
84
84
84
78
78
ENDCHAR
STARTCHAR utilde
ENCODING 361
SWIDTH 500 0
DWIDTH 8 0
BBX 6 12 1 0
BITMAP
F8
F8
00
00
88
88
88
88
88
88
7C
7C
ENDCHAR
STARTCHAR Umacron
ENCODING 362
SWIDTH 500 0
DWIDTH 8 0
BBX 6 14 1 0
BITMAP
FC
FC
00
00
84
84
84
84
84
84
84
84
78
78
ENDCHAR
STARTCHAR umacron
ENCODING 363
SWIDTH 500 0
DWIDTH 8 0
BBX 6 12 1 0
BITMAP
F8
F8
00
00
88
88
88
88
88
88
7C
7C
ENDCHAR
STARTCHAR Ubreve
ENCODING 364
SWIDTH 500 0
DWIDTH 8 0
BBX 6 14 1 0
BITMAP
48
48
30
30
84
84
84
84
84
84
84
84
78
78
ENDCHAR
STARTCHAR ubreve
ENCODING 365
SWIDTH 500 0
DWIDTH 8 0
BBX 7 14 0 0
BITMAP
82
82
7C
7C
00
00
44
44
44
44
44
44
3E
3E
ENDCHAR
STARTCHAR Uring
ENCODING 366
SWIDTH 500 0
DWIDTH 8 0
BBX 6 14 1 0
BITMAP
30
30
B4
B4
84
84
84
84
84
84
84
84
78
78
ENDCHAR
STARTCHAR uring
ENCODING 367
SWIDTH 500 0
DWIDTH 8 0
BBX 6 12 1 0
BITMAP
20
20
00
00
88
88
88
88
88
88
7C
7C
ENDCHAR
STARTCHAR Uhungarumlaut
ENCODING 368
SWIDTH 500 0
DWIDTH 8 0
BBX 7 14 1 0
BITMAP
36
36
00
00
84
84
84
84
84
84
84
84
78
78
ENDCHAR
STARTCHAR uhungarumlaut
ENCODING 369
SWIDTH 500 0
DWIDTH 8 0
BBX 6 14 1 0
BITMAP
24
24
48
48
00
00
88
88
88
88
88
88
7C
7C
ENDCHAR
STARTCHAR Uogonek
ENCODING 370
SWIDTH 500 0
DWIDTH 8 0
BBX 7 16 1 -2
BITMAP
84
84
84
84
84
84
84
84
84
84
84
84
78
78
0E
0E
ENDCHAR
STARTCHAR uogonek
ENCODING 371
SWIDTH 500 0
DWIDTH 8 0
BBX 7 12 1 -2
BITMAP
88
88
88
88
88
88
88
88
7C
7C
0E
0E
ENDCHAR
STARTCHAR Wcircumflex
ENCODING 372
SWIDTH 500 0
DWIDTH 8 0
BBX 7 14 1 0
BITMAP
10
10
AA
AA
82
82
92
92
92
92
92
92
6C
6C
ENDCHAR
STARTCHAR wcircumflex
ENCODING 373
SWIDTH 500 0
DWIDTH 8 0
BBX 7 14 1 0
BITMAP
38
38
44
44
00
00
82
82
92
92
92
92
6C
6C
ENDCHAR
STARTCHAR Ycircumflex
ENCODING 374
SWIDTH 500 0
DWIDTH 8 0
BBX 5 14 1 0
BITMAP
70
70
88
88
00
00
88
88
50
50
20
20
70
70
ENDCHAR
STARTCHAR ycircumflex
ENCODING 375
SWIDTH 500 0
DWIDTH 8 0
BBX 6 16 1 -2
BITMAP
30
30
48
48
00
00
84
84
84
84
7C
7C
04
04
78
78
ENDCHAR
STARTCHAR Ydieresis
ENCODING 376
SWIDTH 500 0
DWIDTH 8 0
BBX 5 14 1 0
BITMAP
88
88
00
00
88
88
50
50
20
20
20
20
70
70
ENDCHAR
STARTCHAR Zacute
ENCODING 377
SWIDTH 500 0
DWIDTH 8 0
BBX 8 14 0 0
BITMAP
03
03
FC
FC
88
88
10
10
20
20
44
44
FC
FC
ENDCHAR
STARTCHAR zacute
ENCODING 378
SWIDTH 500 0
DWIDTH 8 0
BBX 6 14 1 0
BITMAP
0C
0C
00
00
F8
F8
10
10
20
20
40
40
F8
F8
ENDCHAR
STARTCHAR Zdotaccent
ENCODING 379
SWIDTH 500 0
DWIDTH 8 0
BBX 6 14 1 0
BITMAP
30
30
FC
FC
88
88
10
10
20
20
44
44
FC
FC
ENDCHAR
STARTCHAR zdotaccent
ENCODING 380
SWIDTH 500 0
DWIDTH 8 0
BBX 5 14 1 0
BITMAP
20
20
00
00
F8
F8
10
10
20
20
40
40
F8
F8
ENDCHAR
STARTCHAR Zcaron
ENCODING 381
SWIDTH 500 0
DWIDTH 8 0
BBX 6 14 1 0
BITMAP
48
48
FC
FC
88
88
10
10
20
20
44
44
FC
FC
ENDCHAR
STARTCHAR zcaron
ENCODING 382
SWIDTH 500 0
DWIDTH 8 0
BBX 5 14 1 0
BITMAP
88
88
70
70
F8
F8
10
10
20
20
40
40
F8
F8
ENDCHAR
STARTCHAR longs
ENCODING 383
SWIDTH 500 0
DWIDTH 8 0
BBX 5 14 2 0
BITMAP
30
30
48
48
40
40
40
40
40
40
40
40
E0
E0
ENDCHAR
STARTCHAR florin
ENCODING 402
SWIDTH 500 0
DWIDTH 8 0
BBX 7 16 0 -2
BITMAP
1C
1C
12
12
10
10
7C
7C
10
10
10
10
90
90
60
60
ENDCHAR
STARTCHAR ohorn
ENCODING 417
SWIDTH 500 0
DWIDTH 8 0
BBX 6 10 1 0
BITMAP
7C
7C
90
90
90
90
90
90
60
60
ENDCHAR
STARTCHAR uni01B7
ENCODING 439
SWIDTH 500 0
DWIDTH 8 0
BBX 6 14 1 0
BITMAP
FC
FC
88
88
10
10
38
38
04
04
84
84
78
78
ENDCHAR
STARTCHAR Aringacute
ENCODING 506
SWIDTH 500 0
DWIDTH 8 0
BBX 6 14 1 0
BITMAP
3C
3C
30
30
00
00
78
78
84
84
FC
FC
84
84
ENDCHAR
STARTCHAR aringacute
ENCODING 507
SWIDTH 500 0
DWIDTH 8 0
BBX 6 14 1 0
BITMAP
18
18
20
20
70
70
08
08
78
78
88
88
7C
7C
ENDCHAR
STARTCHAR AEacute
ENCODING 508
SWIDTH 500 0
DWIDTH 8 0
BBX 7 14 1 0
BITMAP
06
06
00
00
3E
3E
48
48
FE
FE
88
88
8E
8E
ENDCHAR
STARTCHAR aeacute
ENCODING 509
SWIDTH 500 0
DWIDTH 8 0
BBX 7 14 1 0
BITMAP
06
06
00
00
66
66
18
18
7E
7E
88
88
76
76
ENDCHAR
STARTCHAR Oslashacute
ENCODING 510
SWIDTH 500 0
DWIDTH 8 0
BBX 7 14 1 0
BITMAP
06
06
7C
7C
86
86
9A
9A
B2
B2
C2
C2
7C
7C
ENDCHAR
STARTCHAR oslashacute
ENCODING 511
SWIDTH 500 0
DWIDTH 8 0
BBX 7 16 1 -2
BITMAP
18
18
02
02
7C
7C
8A
8A
92
92
A2
A2
7C
7C
80
80
ENDCHAR
STARTCHAR Scommaaccent
ENCODING 536
SWIDTH 500 0
DWIDTH 8 0
BBX 6 16 1 -2
BITMAP
78
78
84
84
80
80
78
78
04
04
84
84
78
78
20
20
ENDCHAR
STARTCHAR scommaaccent
ENCODING 537
SWIDTH 500 0
DWIDTH 8 0
BBX 6 12 1 -2
BITMAP
7C
7C
80
80
78
78
04
04
F8
F8
20
20
ENDCHAR
STARTCHAR uni021A
ENCODING 538
SWIDTH 500 0
DWIDTH 8 0
BBX 7 16 1 -2
BITMAP
FE
FE
92
92
10
10
10
10
10
10
10
10
38
38
10
10
ENDCHAR
STARTCHAR uni021B
ENCODING 539
SWIDTH 500 0
DWIDTH 8 0
BBX 6 16 1 -2
BITMAP
20
20
20
20
F8
F8
20
20
20
20
24
24
18
18
20
20
ENDCHAR
STARTCHAR uni0251
ENCODING 593
SWIDTH 500 0
DWIDTH 8 0
BBX 7 10 1 0
BITMAP
62
62
94
94
88
88
94
94
62
62
ENDCHAR
STARTCHAR uni0278
ENCODING 632
SWIDTH 500 0
DWIDTH 8 0
BBX 5 16 1 -2
BITMAP
F8
F8
20
20
70
70
88
88
88
88
70
70
20
20
F8
F8
ENDCHAR
STARTCHAR circumflex
ENCODING 710
SWIDTH 500 0
DWIDTH 8 0
BBX 7 8 0 6
BITMAP
10
10
28
28
44
44
82
82
ENDCHAR
STARTCHAR caron
ENCODING 711
SWIDTH 500 0
DWIDTH 8 0
BBX 4 4 2 10
BITMAP
90
90
60
60
ENDCHAR
STARTCHAR uni02C9
ENCODING 713
SWIDTH 500 0
DWIDTH 8 0
BBX 6 2 1 12
BITMAP
FC
FC
ENDCHAR
STARTCHAR breve
ENCODING 728
SWIDTH 500 0
DWIDTH 8 0
BBX 6 4 1 10
BITMAP
84
84
78
78
ENDCHAR
STARTCHAR dotaccent
ENCODING 729
SWIDTH 500 0
DWIDTH 8 0
BBX 2 4 3 10
BITMAP
C0
C0
C0
C0
ENDCHAR
STARTCHAR ring
ENCODING 730
SWIDTH 500 0
DWIDTH 8 0
BBX 4 8 1 6
BITMAP
60
60
90
90
90
90
60
60
ENDCHAR
STARTCHAR ogonek
ENCODING 731
SWIDTH 500 0
DWIDTH 8 0
BBX 3 4 3 -2
BITMAP
80
80
E0
E0
ENDCHAR
STARTCHAR tilde
ENCODING 732
SWIDTH 500 0
DWIDTH 8 0
BBX 6 4 1 10
BITMAP
64
64
98
98
ENDCHAR
STARTCHAR hungarumlaut
ENCODING 733
SWIDTH 500 0
DWIDTH 8 0
BBX 5 4 2 10
BITMAP
48
48
90
90
ENDCHAR
STARTCHAR uni037E
ENCODING 894
SWIDTH 500 0
DWIDTH 8 0
BBX 2 14 2 -2
BITMAP
40
40
40
40
00
00
00
00
40
40
40
40
80
80
ENDCHAR
STARTCHAR tonos
ENCODING 900
SWIDTH 500 0
DWIDTH 8 0
BBX 3 6 2 8
BITMAP
20
20
40
40
80
80
ENDCHAR
STARTCHAR dieresistonos
ENCODING 901
SWIDTH 500 0
DWIDTH 8 0
BBX 7 4 1 10
BITMAP
10
10
C6
C6
ENDCHAR
STARTCHAR Alphatonos
ENCODING 902
SWIDTH 500 0
DWIDTH 8 0
BBX 7 14 1 0
BITMAP
88
88
94
94
22
22
22
22
3E
3E
22
22
22
22
ENDCHAR
STARTCHAR anoteleia
ENCODING 903
SWIDTH 500 0
DWIDTH 8 0
BBX 1 4 3 6
BITMAP
80
80
80
80
ENDCHAR
STARTCHAR Epsilontonos
ENCODING 904
SWIDTH 500 0
DWIDTH 8 0
BBX 7 14 1 0
BITMAP
BE
BE
92
92
10
10
1C
1C
10
10
12
12
3E
3E
ENDCHAR
STARTCHAR Etatonos
ENCODING 905
SWIDTH 500 0
DWIDTH 8 0
BBX 7 14 1 0
BITMAP
A2
A2
A2
A2
22
22
3E
3E
22
22
22
22
22
22
ENDCHAR
STARTCHAR Iotatonos
ENCODING 906
SWIDTH 500 0
DWIDTH 8 0
BBX 5 14 1 0
BITMAP
B8
B8
90
90
10
10
10
10
10
10
10
10
38
38
ENDCHAR
STARTCHAR Omicrontonos
ENCODING 908
SWIDTH 500 0
DWIDTH 8 0
BBX 7 14 1 0
BITMAP
88
88
94
94
22
22
22
22
22
22
14
14
08
08
ENDCHAR
STARTCHAR Upsilontonos
ENCODING 910
SWIDTH 500 0
DWIDTH 8 0
BBX 7 14 1 0
BITMAP
A2
A2
A2
A2
14
14
08
08
08
08
08
08
1C
1C
ENDCHAR
STARTCHAR Omegatonos
ENCODING 911
SWIDTH 500 0
DWIDTH 8 0
BBX 7 14 1 0
BITMAP
88
88
94
94
22
22
22
22
22
22
14
14
36
36
ENDCHAR
STARTCHAR iotadieresistonos
ENCODING 912
SWIDTH 500 0
DWIDTH 8 0
BBX 7 14 1 0
BITMAP
10
10
C6
C6
10
10
10
10
10
10
10
10
08
08
ENDCHAR
STARTCHAR Alpha
ENCODING 913
SWIDTH 500 0
DWIDTH 8 0
BBX 6 14 1 0
BITMAP
30
30
48
48
84
84
84
84
FC
FC
84
84
84
84
ENDCHAR
STARTCHAR Beta
ENCODING 914
SWIDTH 500 0
DWIDTH 8 0
BBX 6 14 1 0
BITMAP
F8
F8
44
44
44
44
78
78
44
44
44
44
F8
F8
ENDCHAR
STARTCHAR Gamma
ENCODING 915
SWIDTH 500 0
DWIDTH 8 0
BBX 6 14 1 0
BITMAP
FC
FC
84
84
80
80
80
80
80
80
80
80
80
80
ENDCHAR
STARTCHAR uni0394
ENCODING 916
SWIDTH 500 0
DWIDTH 8 0
BBX 7 14 1 0
BITMAP
10
10
28
28
44
44
82
82
82
82
82
82
FE
FE
ENDCHAR
STARTCHAR Epsilon
ENCODING 917
SWIDTH 500 0
DWIDTH 8 0
BBX 6 14 1 0
BITMAP
FC
FC
44
44
50
50
70
70
50
50
44
44
FC
FC
ENDCHAR
STARTCHAR Zeta
ENCODING 918
SWIDTH 500 0
DWIDTH 8 0
BBX 7 14 1 0
BITMAP
FE
FE
84
84
08
08
10
10
20
20
42
42
FE
FE
ENDCHAR
STARTCHAR Eta
ENCODING 919
SWIDTH 500 0
DWIDTH 8 0
BBX 6 14 1 0
BITMAP
84
84
84
84
84
84
FC
FC
84
84
84
84
84
84
ENDCHAR
STARTCHAR Theta
ENCODING 920
SWIDTH 500 0
DWIDTH 8 0
BBX 6 14 1 0
BITMAP
30
30
48
48
84
84
FC
FC
84
84
48
48
30
30
ENDCHAR
STARTCHAR Iota
ENCODING 921
SWIDTH 500 0
DWIDTH 8 0
BBX 3 14 2 0
BITMAP
E0
E0
40
40
40
40
40
40
40
40
40
40
E0
E0
ENDCHAR
STARTCHAR Kappa
ENCODING 922
SWIDTH 500 0
DWIDTH 8 0
BBX 7 14 1 0
BITMAP
C4
C4
48
48
50
50
60
60
50
50
48
48
C6
C6
ENDCHAR
STARTCHAR Lambda
ENCODING 923
SWIDTH 500 0
DWIDTH 8 0
BBX 7 14 1 0
BITMAP
10
10
28
28
44
44
82
82
82
82
82
82
82
82
ENDCHAR
STARTCHAR Mu
ENCODING 924
SWIDTH 500 0
DWIDTH 8 0
BBX 7 14 1 0
BITMAP
C6
C6
AA
AA
92
92
82
82
82
82
82
82
82
82
ENDCHAR
STARTCHAR Nu
ENCODING 925
SWIDTH 500 0
DWIDTH 8 0
BBX 6 14 1 0
BITMAP
C4
C4
A4
A4
94
94
8C
8C
84
84
84
84
84
84
ENDCHAR
STARTCHAR Xi
ENCODING 926
SWIDTH 500 0
DWIDTH 8 0
BBX 6 14 1 0
BITMAP
FC
FC
84
84
00
00
78
78
00
00
84
84
FC
FC
ENDCHAR
STARTCHAR Omicron
ENCODING 927
SWIDTH 500 0
DWIDTH 8 0
BBX 6 14 1 0
BITMAP
30
30
48
48
84
84
84
84
84
84
48
48
30
30
ENDCHAR
STARTCHAR Pi
ENCODING 928
SWIDTH 500 0
DWIDTH 8 0
BBX 6 14 1 0
BITMAP
FC
FC
84
84
84
84
84
84
84
84
84
84
84
84
ENDCHAR
STARTCHAR Rho
ENCODING 929
SWIDTH 500 0
DWIDTH 8 0
BBX 6 14 1 0
BITMAP
F8
F8
44
44
44
44
78
78
40
40
40
40
E0
E0
ENDCHAR
STARTCHAR Sigma
ENCODING 931
SWIDTH 500 0
DWIDTH 8 0
BBX 6 14 1 0
BITMAP
FC
FC
44
44
20
20
10
10
20
20
44
44
FC
FC
ENDCHAR
STARTCHAR Tau
ENCODING 932
SWIDTH 500 0
DWIDTH 8 0
BBX 7 14 1 0
BITMAP
FE
FE
92
92
10
10
10
10
10
10
10
10
38
38
ENDCHAR
STARTCHAR Upsilon
ENCODING 933
SWIDTH 500 0
DWIDTH 8 0
BBX 7 14 1 0
BITMAP
82
82
44
44
28
28
10
10
10
10
10
10
38
38
ENDCHAR
STARTCHAR Phi
ENCODING 934
SWIDTH 500 0
DWIDTH 8 0
BBX 7 14 1 0
BITMAP
10
10
7C
7C
92
92
92
92
7C
7C
10
10
10
10
ENDCHAR
STARTCHAR Chi
ENCODING 935
SWIDTH 500 0
DWIDTH 8 0
BBX 7 14 1 0
BITMAP
82
82
44
44
28
28
10
10
28
28
44
44
82
82
ENDCHAR
STARTCHAR Psi
ENCODING 936
SWIDTH 500 0
DWIDTH 8 0
BBX 7 14 1 0
BITMAP
92
92
92
92
92
92
7C
7C
10
10
10
10
10
10
ENDCHAR
STARTCHAR uni03A9
ENCODING 937
SWIDTH 500 0
DWIDTH 8 0
BBX 6 14 1 0
BITMAP
30
30
48
48
84
84
84
84
84
84
48
48
CC
CC
ENDCHAR
STARTCHAR Iotadieresis
ENCODING 938
SWIDTH 500 0
DWIDTH 8 0
BBX 5 14 1 0
BITMAP
88
88
00
00
70
70
20
20
20
20
20
20
70
70
ENDCHAR
STARTCHAR Upsilondieresis
ENCODING 939
SWIDTH 500 0
DWIDTH 8 0
BBX 5 14 1 0
BITMAP
88
88
00
00
88
88
50
50
20
20
20
20
70
70
ENDCHAR
STARTCHAR alphatonos
ENCODING 940
SWIDTH 500 0
DWIDTH 8 0
BBX 6 14 1 0
BITMAP
18
18
00
00
6C
6C
98
98
88
88
98
98
6C
6C
ENDCHAR
STARTCHAR epsilontonos
ENCODING 941
SWIDTH 500 0
DWIDTH 8 0
BBX 6 14 1 0
BITMAP
18
18
00
00
7C
7C
80
80
70
70
80
80
7C
7C
ENDCHAR
STARTCHAR etatonos
ENCODING 942
SWIDTH 500 0
DWIDTH 8 0
BBX 6 14 1 0
BITMAP
18
18
00
00
B8
B8
C4
C4
44
44
44
44
44
44
ENDCHAR
STARTCHAR iotatonos
ENCODING 943
SWIDTH 500 0
DWIDTH 8 0
BBX 3 14 3 0
BITMAP
60
60
00
00
80
80
80
80
80
80
80
80
40
40
ENDCHAR
STARTCHAR upsilondieresistonos
ENCODING 944
SWIDTH 500 0
DWIDTH 8 0
BBX 7 14 1 0
BITMAP
10
10
C6
C6
00
00
84
84
84
84
84
84
78
78
ENDCHAR
STARTCHAR alpha
ENCODING 945
SWIDTH 500 0
DWIDTH 8 0
BBX 6 10 1 0
BITMAP
6C
6C
98
98
88
88
98
98
6C
6C
ENDCHAR
STARTCHAR beta
ENCODING 946
SWIDTH 500 0
DWIDTH 8 0
BBX 6 16 1 -2
BITMAP
78
78
84
84
84
84
F8
F8
84
84
F8
F8
80
80
80
80
ENDCHAR
STARTCHAR gamma
ENCODING 947
SWIDTH 500 0
DWIDTH 8 0
BBX 6 12 1 -2
BITMAP
84
84
48
48
30
30
78
78
84
84
78
78
ENDCHAR
STARTCHAR delta
ENCODING 948
SWIDTH 500 0
DWIDTH 8 0
BBX 6 14 1 0
BITMAP
38
38
44
44
30
30
78
78
84
84
84
84
78
78
ENDCHAR
STARTCHAR epsilon
ENCODING 949
SWIDTH 500 0
DWIDTH 8 0
BBX 6 10 1 0
BITMAP
7C
7C
80
80
70
70
80
80
7C
7C
ENDCHAR
STARTCHAR zeta
ENCODING 950
SWIDTH 500 0
DWIDTH 8 0
BBX 6 16 1 -2
BITMAP
FC
FC
88
88
10
10
10
10
08
08
04
04
84
84
78
78
ENDCHAR
STARTCHAR eta
ENCODING 951
SWIDTH 500 0
DWIDTH 8 0
BBX 6 10 1 0
BITMAP
B8
B8
C4
C4
44
44
44
44
44
44
ENDCHAR
STARTCHAR theta
ENCODING 952
SWIDTH 500 0
DWIDTH 8 0
BBX 6 14 1 0
BITMAP
78
78
84
84
04
04
78
78
84
84
84
84
78
78
ENDCHAR
STARTCHAR iota
ENCODING 953
SWIDTH 500 0
DWIDTH 8 0
BBX 2 10 3 0
BITMAP
80
80
80
80
80
80
80
80
40
40
ENDCHAR
STARTCHAR kappa
ENCODING 954
SWIDTH 500 0
DWIDTH 8 0
BBX 6 10 1 0
BITMAP
88
88
90
90
E0
E0
90
90
8C
8C
ENDCHAR
STARTCHAR lambda
ENCODING 955
SWIDTH 500 0
DWIDTH 8 0
BBX 6 14 1 0
BITMAP
70
70
88
88
04
04
3C
3C
44
44
84
84
84
84
ENDCHAR
STARTCHAR uni03BC
ENCODING 956
SWIDTH 500 0
DWIDTH 8 0
BBX 6 12 1 -2
BITMAP
88
88
88
88
C8
C8
BC
BC
80
80
80
80
ENDCHAR
STARTCHAR nu
ENCODING 957
SWIDTH 500 0
DWIDTH 8 0
BBX 7 10 1 0
BITMAP
82
82
82
82
44
44
28
28
10
10
ENDCHAR
STARTCHAR xi
ENCODING 958
SWIDTH 500 0
DWIDTH 8 0
BBX 6 16 1 -2
BITMAP
FC
FC
20
20
40
40
38
38
60
60
18
18
44
44
38
38
ENDCHAR
STARTCHAR omicron
ENCODING 959
SWIDTH 500 0
DWIDTH 8 0
BBX 6 10 1 0
BITMAP
78
78
84
84
84
84
84
84
78
78
ENDCHAR
STARTCHAR pi
ENCODING 960
SWIDTH 500 0
DWIDTH 8 0
BBX 6 10 1 0
BITMAP
FC
FC
84
84
84
84
84
84
84
84
ENDCHAR
STARTCHAR rho
ENCODING 961
SWIDTH 500 0
DWIDTH 8 0
BBX 6 12 1 -2
BITMAP
78
78
84
84
84
84
F8
F8
80
80
80
80
ENDCHAR
STARTCHAR sigma1
ENCODING 962
SWIDTH 500 0
DWIDTH 8 0
BBX 6 12 1 -2
BITMAP
78
78
84
84
80
80
78
78
04
04
18
18
ENDCHAR
STARTCHAR sigma
ENCODING 963
SWIDTH 500 0
DWIDTH 8 0
BBX 6 10 1 0
BITMAP
7C
7C
90
90
88
88
88
88
70
70
ENDCHAR
STARTCHAR tau
ENCODING 964
SWIDTH 500 0
DWIDTH 8 0
BBX 5 10 1 0
BITMAP
F8
F8
20
20
20
20
20
20
10
10
ENDCHAR
STARTCHAR upsilon
ENCODING 965
SWIDTH 500 0
DWIDTH 8 0
BBX 6 10 1 0
BITMAP
84
84
84
84
84
84
84
84
78
78
ENDCHAR
STARTCHAR phi
ENCODING 966
SWIDTH 500 0
DWIDTH 8 0
BBX 7 12 1 -2
BITMAP
9C
9C
92
92
92
92
7C
7C
10
10
10
10
ENDCHAR
STARTCHAR chi
ENCODING 967
SWIDTH 500 0
DWIDTH 8 0
BBX 5 10 1 0
BITMAP
88
88
50
50
20
20
50
50
88
88
ENDCHAR
STARTCHAR psi
ENCODING 968
SWIDTH 500 0
DWIDTH 8 0
BBX 7 12 1 -2
BITMAP
92
92
92
92
92
92
7C
7C
10
10
10
10
ENDCHAR
STARTCHAR omega
ENCODING 969
SWIDTH 500 0
DWIDTH 8 0
BBX 7 10 1 0
BITMAP
82
82
92
92
92
92
92
92
6C
6C
ENDCHAR
STARTCHAR iotadieresis
ENCODING 970
SWIDTH 500 0
DWIDTH 8 0
BBX 5 14 1 0
BITMAP
88
88
00
00
20
20
20
20
20
20
20
20
10
10
ENDCHAR
STARTCHAR upsilondieresis
ENCODING 971
SWIDTH 500 0
DWIDTH 8 0
BBX 6 14 1 0
BITMAP
84
84
00
00
84
84
84
84
84
84
84
84
78
78
ENDCHAR
STARTCHAR omicrontonos
ENCODING 972
SWIDTH 500 0
DWIDTH 8 0
BBX 6 14 1 0
BITMAP
18
18
00
00
78
78
84
84
84
84
84
84
78
78
ENDCHAR
STARTCHAR upsilontonos
ENCODING 973
SWIDTH 500 0
DWIDTH 8 0
BBX 6 14 1 0
BITMAP
18
18
00
00
84
84
84
84
84
84
84
84
78
78
ENDCHAR
STARTCHAR omegatonos
ENCODING 974
SWIDTH 500 0
DWIDTH 8 0
BBX 7 14 1 0
BITMAP
18
18
00
00
82
82
92
92
92
92
92
92
6C
6C
ENDCHAR
STARTCHAR uni03D0
ENCODING 976
SWIDTH 500 0
DWIDTH 8 0
BBX 6 14 1 -2
BITMAP
78
78
84
84
F8
F8
84
84
F8
F8
80
80
80
80
ENDCHAR
STARTCHAR uni03F4
ENCODING 1012
SWIDTH 500 0
DWIDTH 8 0
BBX 6 14 1 0
BITMAP
30
30
48
48
84
84
FC
FC
84
84
48
48
30
30
ENDCHAR
STARTCHAR uni0400
ENCODING 1024
SWIDTH 500 0
DWIDTH 8 0
BBX 5 14 1 0
BITMAP
C0
C0
00
00
F8
F8
40
40
70
70
40
40
F8
F8
ENDCHAR
STARTCHAR afii10023
ENCODING 1025
SWIDTH 500 0
DWIDTH 8 0
BBX 5 14 1 0
BITMAP
88
88
00
00
F8
F8
40
40
70
70
40
40
F8
F8
ENDCHAR
STARTCHAR afii10051
ENCODING 1026
SWIDTH 500 0
DWIDTH 8 0
BBX 6 14 1 0
BITMAP
F0
F0
40
40
58
58
64
64
44
44
44
44
C8
C8
ENDCHAR
STARTCHAR afii10052
ENCODING 1027
SWIDTH 500 0
DWIDTH 8 0
BBX 6 14 1 0
BITMAP
0C
0C
00
00
FC
FC
84
84
80
80
80
80
80
80
ENDCHAR
STARTCHAR afii10053
ENCODING 1028
SWIDTH 500 0
DWIDTH 8 0
BBX 6 14 1 0
BITMAP
38
38
44
44
80
80
F0
F0
80
80
44
44
38
38
ENDCHAR
STARTCHAR afii10054
ENCODING 1029
SWIDTH 500 0
DWIDTH 8 0
BBX 6 14 1 0
BITMAP
78
78
84
84
80
80
78
78
04
04
84
84
78
78
ENDCHAR
STARTCHAR afii10055
ENCODING 1030
SWIDTH 500 0
DWIDTH 8 0
BBX 3 14 2 0
BITMAP
E0
E0
40
40
40
40
40
40
40
40
40
40
E0
E0
ENDCHAR
STARTCHAR afii10056
ENCODING 1031
SWIDTH 500 0
DWIDTH 8 0
BBX 5 14 1 0
BITMAP
88
88
00
00
70
70
20
20
20
20
20
20
70
70
ENDCHAR
STARTCHAR afii10057
ENCODING 1032
SWIDTH 500 0
DWIDTH 8 0
BBX 6 14 1 0
BITMAP
1C
1C
08
08
08
08
08
08
88
88
88
88
70
70
ENDCHAR
STARTCHAR afii10058
ENCODING 1033
SWIDTH 500 0
DWIDTH 8 0
BBX 7 14 0 0
BITMAP
F0
F0
50
50
5C
5C
52
52
52
52
52
52
DC
DC
ENDCHAR
STARTCHAR afii10059
ENCODING 1034
SWIDTH 500 0
DWIDTH 8 0
BBX 7 14 0 0
BITMAP
90
90
90
90
90
90
FC
FC
92
92
92
92
9C
9C
ENDCHAR
STARTCHAR afii10060
ENCODING 1035
SWIDTH 500 0
DWIDTH 8 0
BBX 6 14 1 0
BITMAP
F0
F0
40
40
78
78
44
44
44
44
44
44
C4
C4
ENDCHAR
STARTCHAR afii10061
ENCODING 1036
SWIDTH 500 0
DWIDTH 8 0
BBX 6 14 1 0
BITMAP
30
30
84
84
88
88
90
90
E0
E0
90
90
8C
8C
ENDCHAR
STARTCHAR uni040D
ENCODING 1037
SWIDTH 500 0
DWIDTH 8 0
BBX 6 14 1 0
BITMAP
C0
C0
00
00
84
84
8C
8C
94
94
A4
A4
C4
C4
ENDCHAR
STARTCHAR afii10062
ENCODING 1038
SWIDTH 500 0
DWIDTH 8 0
BBX 6 14 1 0
BITMAP
30
30
84
84
84
84
84
84
7C
7C
04
04
78
78
ENDCHAR
STARTCHAR afii10145
ENCODING 1039
SWIDTH 500 0
DWIDTH 8 0
BBX 5 16 1 -2
BITMAP
88
88
88
88
88
88
88
88
88
88
88
88
F8
F8
20
20
ENDCHAR
STARTCHAR afii10017
ENCODING 1040
SWIDTH 500 0
DWIDTH 8 0
BBX 6 14 1 0
BITMAP
30
30
48
48
84
84
84
84
FC
FC
84
84
84
84
ENDCHAR
STARTCHAR afii10018
ENCODING 1041
SWIDTH 500 0
DWIDTH 8 0
BBX 6 14 1 0
BITMAP
FC
FC
40
40
40
40
78
78
44
44
44
44
F8
F8
ENDCHAR
STARTCHAR afii10019
ENCODING 1042
SWIDTH 500 0
DWIDTH 8 0
BBX 6 14 1 0
BITMAP
F8
F8
44
44
44
44
78
78
44
44
44
44
F8
F8
ENDCHAR
STARTCHAR afii10020
ENCODING 1043
SWIDTH 500 0
DWIDTH 8 0
BBX 6 14 1 0
BITMAP
FC
FC
84
84
80
80
80
80
80
80
80
80
80
80
ENDCHAR
STARTCHAR afii10021
ENCODING 1044
SWIDTH 500 0
DWIDTH 8 0
BBX 6 16 1 -2
BITMAP
38
38
48
48
48
48
48
48
48
48
48
48
FC
FC
84
84
ENDCHAR
STARTCHAR afii10022
ENCODING 1045
SWIDTH 500 0
DWIDTH 8 0
BBX 6 14 1 0
BITMAP
FC
FC
44
44
50
50
70
70
50
50
44
44
FC
FC
ENDCHAR
STARTCHAR afii10024
ENCODING 1046
SWIDTH 500 0
DWIDTH 8 0
BBX 7 14 0 0
BITMAP
92
92
92
92
92
92
7C
7C
92
92
92
92
92
92
ENDCHAR
STARTCHAR afii10025
ENCODING 1047
SWIDTH 500 0
DWIDTH 8 0
BBX 6 14 1 0
BITMAP
78
78
84
84
04
04
78
78
04
04
84
84
78
78
ENDCHAR
STARTCHAR afii10026
ENCODING 1048
SWIDTH 500 0
DWIDTH 8 0
BBX 6 14 1 0
BITMAP
84
84
84
84
8C
8C
94
94
A4
A4
C4
C4
84
84
ENDCHAR
STARTCHAR afii10027
ENCODING 1049
SWIDTH 500 0
DWIDTH 8 0
BBX 6 14 1 0
BITMAP
30
30
84
84
8C
8C
94
94
A4
A4
C4
C4
84
84
ENDCHAR
STARTCHAR afii10028
ENCODING 1050
SWIDTH 500 0
DWIDTH 8 0
BBX 6 14 1 0
BITMAP
8C
8C
90
90
A0
A0
C0
C0
A0
A0
90
90
8C
8C
ENDCHAR
STARTCHAR afii10029
ENCODING 1051
SWIDTH 500 0
DWIDTH 8 0
BBX 6 14 1 0
BITMAP
1C
1C
24
24
44
44
44
44
44
44
44
44
84
84
ENDCHAR
STARTCHAR afii10030
ENCODING 1052
SWIDTH 500 0
DWIDTH 8 0
BBX 7 14 0 0
BITMAP
82
82
C6
C6
AA
AA
92
92
82
82
82
82
82
82
ENDCHAR
STARTCHAR afii10031
ENCODING 1053
SWIDTH 500 0
DWIDTH 8 0
BBX 6 14 1 0
BITMAP
84
84
84
84
84
84
FC
FC
84
84
84
84
84
84
ENDCHAR
STARTCHAR afii10032
ENCODING 1054
SWIDTH 500 0
DWIDTH 8 0
BBX 6 14 1 0
BITMAP
78
78
84
84
84
84
84
84
84
84
84
84
78
78
ENDCHAR
STARTCHAR afii10033
ENCODING 1055
SWIDTH 500 0
DWIDTH 8 0
BBX 6 14 1 0
BITMAP
FC
FC
84
84
84
84
84
84
84
84
84
84
84
84
ENDCHAR
STARTCHAR afii10034
ENCODING 1056
SWIDTH 500 0
DWIDTH 8 0
BBX 6 14 1 0
BITMAP
F8
F8
44
44
44
44
78
78
40
40
40
40
E0
E0
ENDCHAR
STARTCHAR afii10035
ENCODING 1057
SWIDTH 500 0
DWIDTH 8 0
BBX 6 14 1 0
BITMAP
78
78
84
84
80
80
80
80
80
80
84
84
78
78
ENDCHAR
STARTCHAR afii10036
ENCODING 1058
SWIDTH 500 0
DWIDTH 8 0
BBX 7 14 0 0
BITMAP
FE
FE
92
92
10
10
10
10
10
10
10
10
38
38
ENDCHAR
STARTCHAR afii10037
ENCODING 1059
SWIDTH 500 0
DWIDTH 8 0
BBX 6 14 1 0
BITMAP
84
84
84
84
84
84
7C
7C
04
04
84
84
78
78
ENDCHAR
STARTCHAR afii10038
ENCODING 1060
SWIDTH 500 0
DWIDTH 8 0
BBX 7 14 0 0
BITMAP
10
10
7C
7C
92
92
92
92
92
92
7C
7C
10
10
ENDCHAR
STARTCHAR afii10039
ENCODING 1061
SWIDTH 500 0
DWIDTH 8 0
BBX 7 14 0 0
BITMAP
82
82
44
44
28
28
10
10
28
28
44
44
82
82
ENDCHAR
STARTCHAR afii10040
ENCODING 1062
SWIDTH 500 0
DWIDTH 8 0
BBX 6 16 1 -2
BITMAP
88
88
88
88
88
88
88
88
88
88
88
88
FC
FC
04
04
ENDCHAR
STARTCHAR afii10041
ENCODING 1063
SWIDTH 500 0
DWIDTH 8 0
BBX 6 14 1 0
BITMAP
84
84
84
84
84
84
7C
7C
04
04
04
04
04
04
ENDCHAR
STARTCHAR afii10042
ENCODING 1064
SWIDTH 500 0
DWIDTH 8 0
BBX 7 14 0 0
BITMAP
92
92
92
92
92
92
92
92
92
92
92
92
FE
FE
ENDCHAR
STARTCHAR afii10043
ENCODING 1065
SWIDTH 500 0
DWIDTH 8 0
BBX 7 16 0 -2
BITMAP
92
92
92
92
92
92
92
92
92
92
92
92
FE
FE
02
02
ENDCHAR
STARTCHAR afii10044
ENCODING 1066
SWIDTH 500 0
DWIDTH 8 0
BBX 7 14 0 0
BITMAP
E0
E0
20
20
20
20
3C
3C
22
22
22
22
3C
3C
ENDCHAR
STARTCHAR afii10045
ENCODING 1067
SWIDTH 500 0
DWIDTH 8 0
BBX 7 14 0 0
BITMAP
82
82
82
82
82
82
F2
F2
8A
8A
8A
8A
F2
F2
ENDCHAR
STARTCHAR afii10046
ENCODING 1068
SWIDTH 500 0
DWIDTH 8 0
BBX 5 14 1 0
BITMAP
80
80
80
80
80
80
F0
F0
88
88
88
88
F0
F0
ENDCHAR
STARTCHAR afii10047
ENCODING 1069
SWIDTH 500 0
DWIDTH 8 0
BBX 6 14 1 0
BITMAP
F0
F0
08
08
04
04
3C
3C
04
04
08
08
F0
F0
ENDCHAR
STARTCHAR afii10048
ENCODING 1070
SWIDTH 500 0
DWIDTH 8 0
BBX 7 14 0 0
BITMAP
8C
8C
92
92
92
92
F2
F2
92
92
92
92
8C
8C
ENDCHAR
STARTCHAR afii10049
ENCODING 1071
SWIDTH 500 0
DWIDTH 8 0
BBX 6 14 1 0
BITMAP
7C
7C
84
84
84
84
7C
7C
24
24
44
44
84
84
ENDCHAR
STARTCHAR afii10065
ENCODING 1072
SWIDTH 500 0
DWIDTH 8 0
BBX 7 10 0 0
BITMAP
78
78
04
04
7C
7C
84
84
7E
7E
ENDCHAR
STARTCHAR afii10066
ENCODING 1073
SWIDTH 500 0
DWIDTH 8 0
BBX 6 14 1 0
BITMAP
04
04
78
78
80
80
F8
F8
84
84
84
84
78
78
ENDCHAR
STARTCHAR afii10067
ENCODING 1074
SWIDTH 500 0
DWIDTH 8 0
BBX 6 10 1 0
BITMAP
F8
F8
84
84
F8
F8
84
84
F8
F8
ENDCHAR
STARTCHAR afii10068
ENCODING 1075
SWIDTH 500 0
DWIDTH 8 0
BBX 6 10 1 0
BITMAP
FC
FC
84
84
80
80
80
80
80
80
ENDCHAR
STARTCHAR afii10069
ENCODING 1076
SWIDTH 500 0
DWIDTH 8 0
BBX 6 12 1 -2
BITMAP
38
38
48
48
48
48
48
48
FC
FC
84
84
ENDCHAR
STARTCHAR afii10070
ENCODING 1077
SWIDTH 500 0
DWIDTH 8 0
BBX 6 10 1 0
BITMAP
78
78
84
84
FC
FC
80
80
78
78
ENDCHAR
STARTCHAR afii10072
ENCODING 1078
SWIDTH 500 0
DWIDTH 8 0
BBX 7 10 0 0
BITMAP
92
92
92
92
7C
7C
92
92
92
92
ENDCHAR
STARTCHAR afii10073
ENCODING 1079
SWIDTH 500 0
DWIDTH 8 0
BBX 6 10 1 0
BITMAP
78
78
84
84
18
18
84
84
78
78
ENDCHAR
STARTCHAR afii10074
ENCODING 1080
SWIDTH 500 0
DWIDTH 8 0
BBX 6 10 1 0
BITMAP
84
84
8C
8C
94
94
A4
A4
C4
C4
ENDCHAR
STARTCHAR afii10075
ENCODING 1081
SWIDTH 500 0
DWIDTH 8 0
BBX 6 12 1 0
BITMAP
30
30
84
84
8C
8C
94
94
A4
A4
C4
C4
ENDCHAR
STARTCHAR afii10076
ENCODING 1082
SWIDTH 500 0
DWIDTH 8 0
BBX 6 10 1 0
BITMAP
8C
8C
90
90
E0
E0
90
90
8C
8C
ENDCHAR
STARTCHAR afii10077
ENCODING 1083
SWIDTH 500 0
DWIDTH 8 0
BBX 6 10 1 0
BITMAP
3C
3C
44
44
44
44
44
44
84
84
ENDCHAR
STARTCHAR afii10078
ENCODING 1084
SWIDTH 500 0
DWIDTH 8 0
BBX 7 10 0 0
BITMAP
82
82
C6
C6
AA
AA
92
92
82
82
ENDCHAR
STARTCHAR afii10079
ENCODING 1085
SWIDTH 500 0
DWIDTH 8 0
BBX 6 10 1 0
BITMAP
84
84
84
84
FC
FC
84
84
84
84
ENDCHAR
STARTCHAR afii10080
ENCODING 1086
SWIDTH 500 0
DWIDTH 8 0
BBX 6 10 1 0
BITMAP
78
78
84
84
84
84
84
84
78
78
ENDCHAR
STARTCHAR afii10081
ENCODING 1087
SWIDTH 500 0
DWIDTH 8 0
BBX 6 10 1 0
BITMAP
FC
FC
84
84
84
84
84
84
84
84
ENDCHAR
STARTCHAR afii10082
ENCODING 1088
SWIDTH 500 0
DWIDTH 8 0
BBX 6 12 1 -2
BITMAP
F8
F8
44
44
44
44
78
78
40
40
E0
E0
ENDCHAR
STARTCHAR afii10083
ENCODING 1089
SWIDTH 500 0
DWIDTH 8 0
BBX 6 10 1 0
BITMAP
78
78
84
84
80
80
84
84
78
78
ENDCHAR
STARTCHAR afii10084
ENCODING 1090
SWIDTH 500 0
DWIDTH 8 0
BBX 7 10 0 0
BITMAP
FE
FE
92
92
10
10
10
10
38
38
ENDCHAR
STARTCHAR afii10085
ENCODING 1091
SWIDTH 500 0
DWIDTH 8 0
BBX 6 12 1 -2
BITMAP
84
84
84
84
84
84
7C
7C
04
04
78
78
ENDCHAR
STARTCHAR afii10086
ENCODING 1092
SWIDTH 500 0
DWIDTH 8 0
BBX 7 14 0 -2
BITMAP
10
10
7C
7C
92
92
92
92
7C
7C
10
10
38
38
ENDCHAR
STARTCHAR afii10087
ENCODING 1093
SWIDTH 500 0
DWIDTH 8 0
BBX 5 10 1 0
BITMAP
88
88
50
50
20
20
50
50
88
88
ENDCHAR
STARTCHAR afii10088
ENCODING 1094
SWIDTH 500 0
DWIDTH 8 0
BBX 6 12 1 -2
BITMAP
88
88
88
88
88
88
88
88
FC
FC
04
04
ENDCHAR
STARTCHAR afii10089
ENCODING 1095
SWIDTH 500 0
DWIDTH 8 0
BBX 6 10 1 0
BITMAP
84
84
84
84
7C
7C
04
04
04
04
ENDCHAR
STARTCHAR afii10090
ENCODING 1096
SWIDTH 500 0
DWIDTH 8 0
BBX 7 10 0 0
BITMAP
92
92
92
92
92
92
92
92
FE
FE
ENDCHAR
STARTCHAR afii10091
ENCODING 1097
SWIDTH 500 0
DWIDTH 8 0
BBX 7 12 0 -2
BITMAP
92
92
92
92
92
92
92
92
FE
FE
02
02
ENDCHAR
STARTCHAR afii10092
ENCODING 1098
SWIDTH 500 0
DWIDTH 8 0
BBX 7 10 0 0
BITMAP
E0
E0
20
20
3C
3C
22
22
3C
3C
ENDCHAR
STARTCHAR afii10093
ENCODING 1099
SWIDTH 500 0
DWIDTH 8 0
BBX 7 10 0 0
BITMAP
82
82
82
82
F2
F2
8A
8A
F2
F2
ENDCHAR
STARTCHAR afii10094
ENCODING 1100
SWIDTH 500 0
DWIDTH 8 0
BBX 5 10 1 0
BITMAP
80
80
80
80
F0
F0
88
88
F0
F0
ENDCHAR
STARTCHAR afii10095
ENCODING 1101
SWIDTH 500 0
DWIDTH 8 0
BBX 6 10 1 0
BITMAP
F8
F8
04
04
3C
3C
04
04
F8
F8
ENDCHAR
STARTCHAR afii10096
ENCODING 1102
SWIDTH 500 0
DWIDTH 8 0
BBX 7 10 0 0
BITMAP
8C
8C
92
92
F2
F2
92
92
8C
8C
ENDCHAR
STARTCHAR afii10097
ENCODING 1103
SWIDTH 500 0
DWIDTH 8 0
BBX 6 10 1 0
BITMAP
7C
7C
C4
C4
7C
7C
24
24
C4
C4
ENDCHAR
STARTCHAR uni0450
ENCODING 1104
SWIDTH 500 0
DWIDTH 8 0
BBX 6 14 1 0
BITMAP
C0
C0
00
00
78
78
84
84
FC
FC
80
80
78
78
ENDCHAR
STARTCHAR afii10071
ENCODING 1105
SWIDTH 500 0
DWIDTH 8 0
BBX 6 14 1 0
BITMAP
84
84
00
00
78
78
84
84
FC
FC
80
80
78
78
ENDCHAR
STARTCHAR afii10099
ENCODING 1106
SWIDTH 500 0
DWIDTH 8 0
BBX 6 16 1 -2
BITMAP
40
40
E0
E0
40
40
58
58
64
64
44
44
C4
C4
18
18
ENDCHAR
STARTCHAR afii10100
ENCODING 1107
SWIDTH 500 0
DWIDTH 8 0
BBX 6 12 1 0
BITMAP
0C
0C
00
00
FC
FC
80
80
80
80
80
80
ENDCHAR
STARTCHAR afii10101
ENCODING 1108
SWIDTH 500 0
DWIDTH 8 0
BBX 6 10 1 0
BITMAP
78
78
84
84
F0
F0
84
84
78
78
ENDCHAR
STARTCHAR afii10102
ENCODING 1109
SWIDTH 500 0
DWIDTH 8 0
BBX 6 10 1 0
BITMAP
7C
7C
80
80
78
78
04
04
F8
F8
ENDCHAR
STARTCHAR afii10103
ENCODING 1110
SWIDTH 500 0
DWIDTH 8 0
BBX 3 14 2 0
BITMAP
40
40
00
00
C0
C0
40
40
40
40
40
40
E0
E0
ENDCHAR
STARTCHAR afii10104
ENCODING 1111
SWIDTH 500 0
DWIDTH 8 0
BBX 4 14 1 0
BITMAP
90
90
00
00
60
60
20
20
20
20
20
20
70
70
ENDCHAR
STARTCHAR afii10105
ENCODING 1112
SWIDTH 500 0
DWIDTH 8 0
BBX 6 16 1 -2
BITMAP
04
04
00
00
0C
0C
04
04
04
04
84
84
84
84
78
78
ENDCHAR
STARTCHAR afii10106
ENCODING 1113
SWIDTH 500 0
DWIDTH 8 0
BBX 7 10 0 0
BITMAP
F0
F0
50
50
5C
5C
52
52
DC
DC
ENDCHAR
STARTCHAR afii10107
ENCODING 1114
SWIDTH 500 0
DWIDTH 8 0
BBX 7 10 0 0
BITMAP
90
90
90
90
FC
FC
92
92
9C
9C
ENDCHAR
STARTCHAR afii10108
ENCODING 1115
SWIDTH 500 0
DWIDTH 8 0
BBX 6 14 1 0
BITMAP
40
40
E0
E0
40
40
78
78
44
44
44
44
C4
C4
ENDCHAR
STARTCHAR afii10109
ENCODING 1116
SWIDTH 500 0
DWIDTH 8 0
BBX 6 14 1 0
BITMAP
0C
0C
00
00
8C
8C
90
90
E0
E0
90
90
8C
8C
ENDCHAR
STARTCHAR uni045D
ENCODING 1117
SWIDTH 500 0
DWIDTH 8 0
BBX 5 12 1 0
BITMAP
C0
C0
00
00
88
88
98
98
A8
A8
C8
C8
ENDCHAR
STARTCHAR afii10110
ENCODING 1118
SWIDTH 500 0
DWIDTH 8 0
BBX 6 14 1 -2
BITMAP
30
30
84
84
84
84
84
84
7C
7C
04
04
78
78
ENDCHAR
STARTCHAR afii10193
ENCODING 1119
SWIDTH 500 0
DWIDTH 8 0
BBX 5 12 1 -2
BITMAP
88
88
88
88
88
88
88
88
F8
F8
20
20
ENDCHAR
STARTCHAR afii10050
ENCODING 1168
SWIDTH 500 0
DWIDTH 8 0
BBX 6 14 1 0
BITMAP
04
04
FC
FC
80
80
80
80
80
80
80
80
80
80
ENDCHAR
STARTCHAR afii10098
ENCODING 1169
SWIDTH 500 0
DWIDTH 8 0
BBX 6 12 1 0
BITMAP
04
04
FC
FC
80
80
80
80
80
80
80
80
ENDCHAR
STARTCHAR afii57645
ENCODING 1470
SWIDTH 500 0
DWIDTH 8 0
BBX 6 2 1 12
BITMAP
FC
FC
ENDCHAR
STARTCHAR afii57664
ENCODING 1488
SWIDTH 500 0
DWIDTH 8 0
BBX 6 14 1 0
BITMAP
84
84
44
44
64
64
98
98
88
88
84
84
84
84
ENDCHAR
STARTCHAR afii57665
ENCODING 1489
SWIDTH 500 0
DWIDTH 8 0
BBX 6 14 1 0
BITMAP
F0
F0
08
08
08
08
08
08
08
08
08
08
FC
FC
ENDCHAR
STARTCHAR afii57666
ENCODING 1490
SWIDTH 500 0
DWIDTH 8 0
BBX 4 14 2 0
BITMAP
60
60
10
10
10
10
10
10
30
30
50
50
90
90
ENDCHAR
STARTCHAR afii57667
ENCODING 1491
SWIDTH 500 0
DWIDTH 8 0
BBX 6 14 1 0
BITMAP
FC
FC
08
08
08
08
08
08
08
08
08
08
08
08
ENDCHAR
STARTCHAR afii57668
ENCODING 1492
SWIDTH 500 0
DWIDTH 8 0
BBX 6 14 1 0
BITMAP
F8
F8
04
04
04
04
84
84
84
84
84
84
84
84
ENDCHAR
STARTCHAR afii57669
ENCODING 1493
SWIDTH 500 0
DWIDTH 8 0
BBX 3 14 2 0
BITMAP
C0
C0
20
20
20
20
20
20
20
20
20
20
20
20
ENDCHAR
STARTCHAR afii57670
ENCODING 1494
SWIDTH 500 0
DWIDTH 8 0
BBX 3 14 2 0
BITMAP
E0
E0
40
40
40
40
20
20
20
20
40
40
80
80
ENDCHAR
STARTCHAR afii57671
ENCODING 1495
SWIDTH 500 0
DWIDTH 8 0
BBX 6 14 1 0
BITMAP
F8
F8
84
84
84
84
84
84
84
84
84
84
84
84
ENDCHAR
STARTCHAR afii57672
ENCODING 1496
SWIDTH 500 0
DWIDTH 8 0
BBX 6 14 1 0
BITMAP
98
98
A4
A4
A4
A4
84
84
84
84
88
88
F0
F0
ENDCHAR
STARTCHAR afii57673
ENCODING 1497
SWIDTH 500 0
DWIDTH 8 0
BBX 4 8 2 6
BITMAP
E0
E0
10
10
10
10
20
20
ENDCHAR
STARTCHAR afii57674
ENCODING 1498
SWIDTH 500 0
DWIDTH 8 0
BBX 6 16 1 -2
BITMAP
FC
FC
04
04
08
08
08
08
08
08
08
08
08
08
08
08
ENDCHAR
STARTCHAR afii57675
ENCODING 1499
SWIDTH 500 0
DWIDTH 8 0
BBX 6 14 1 0
BITMAP
FC
FC
04
04
04
04
04
04
04
04
04
04
FC
FC
ENDCHAR
STARTCHAR afii57676
ENCODING 1500
SWIDTH 500 0
DWIDTH 8 0
BBX 6 14 1 0
BITMAP
80
80
F8
F8
04
04
04
04
08
08
10
10
20
20
ENDCHAR
STARTCHAR afii57677
ENCODING 1501
SWIDTH 500 0
DWIDTH 8 0
BBX 6 14 1 0
BITMAP
F8
F8
44
44
84
84
84
84
84
84
84
84
FC
FC
ENDCHAR
STARTCHAR afii57678
ENCODING 1502
SWIDTH 500 0
DWIDTH 8 0
BBX 6 14 1 0
BITMAP
9C
9C
64
64
44
44
84
84
84
84
84
84
BC
BC
ENDCHAR
STARTCHAR afii57679
ENCODING 1503
SWIDTH 500 0
DWIDTH 8 0
BBX 3 16 3 -2
BITMAP
C0
C0
20
20
40
40
40
40
40
40
40
40
40
40
40
40
ENDCHAR
STARTCHAR afii57680
ENCODING 1504
SWIDTH 500 0
DWIDTH 8 0
BBX 3 14 2 0
BITMAP
40
40
20
20
20
20
20
20
20
20
20
20
E0
E0
ENDCHAR
STARTCHAR afii57681
ENCODING 1505
SWIDTH 500 0
DWIDTH 8 0
BBX 6 14 1 0
BITMAP
F8
F8
44
44
84
84
84
84
84
84
48
48
30
30
ENDCHAR
STARTCHAR afii57682
ENCODING 1506
SWIDTH 500 0
DWIDTH 8 0
BBX 7 14 0 0
BITMAP
22
22
22
22
22
22
22
22
22
22
24
24
F8
F8
ENDCHAR
STARTCHAR afii57683
ENCODING 1507
SWIDTH 500 0
DWIDTH 8 0
BBX 6 16 1 -2
BITMAP
F8
F8
44
44
44
44
64
64
04
04
04
04
04
04
04
04
ENDCHAR
STARTCHAR afii57684
ENCODING 1508
SWIDTH 500 0
DWIDTH 8 0
BBX 6 14 1 0
BITMAP
F8
F8
44
44
44
44
64
64
04
04
04
04
FC
FC
ENDCHAR
STARTCHAR afii57685
ENCODING 1509
SWIDTH 500 0
DWIDTH 8 0
BBX 6 16 1 -2
BITMAP
84
84
44
44
48
48
30
30
20
20
20
20
20
20
20
20
ENDCHAR
STARTCHAR afii57686
ENCODING 1510
SWIDTH 500 0
DWIDTH 8 0
BBX 6 14 1 0
BITMAP
84
84
44
44
24
24
18
18
08
08
04
04
FC
FC
ENDCHAR
STARTCHAR afii57687
ENCODING 1511
SWIDTH 500 0
DWIDTH 8 0
BBX 6 16 1 -2
BITMAP
F8
F8
04
04
04
04
44
44
48
48
50
50
40
40
40
40
ENDCHAR
STARTCHAR afii57688
ENCODING 1512
SWIDTH 500 0
DWIDTH 8 0
BBX 6 14 1 0
BITMAP
F8
F8
04
04
04
04
04
04
04
04
04
04
04
04
ENDCHAR
STARTCHAR afii57689
ENCODING 1513
SWIDTH 500 0
DWIDTH 8 0
BBX 7 14 0 0
BITMAP
92
92
92
92
92
92
92
92
E2
E2
84
84
F8
F8
ENDCHAR
STARTCHAR afii57690
ENCODING 1514
SWIDTH 500 0
DWIDTH 8 0
BBX 6 14 1 0
BITMAP
F8
F8
44
44
44
44
44
44
44
44
44
44
C4
C4
ENDCHAR
STARTCHAR afii57716
ENCODING 1520
SWIDTH 500 0
DWIDTH 8 0
BBX 7 14 0 0
BITMAP
CC
CC
22
22
22
22
22
22
22
22
22
22
22
22
ENDCHAR
STARTCHAR afii57717
ENCODING 1521
SWIDTH 500 0
DWIDTH 8 0
BBX 7 14 0 0
BITMAP
CC
CC
22
22
22
22
42
42
02
02
02
02
02
02
ENDCHAR
STARTCHAR afii57718
ENCODING 1522
SWIDTH 500 0
DWIDTH 8 0
BBX 7 8 0 6
BITMAP
CC
CC
22
22
22
22
44
44
ENDCHAR
STARTCHAR uni05F3
ENCODING 1523
SWIDTH 500 0
DWIDTH 8 0
BBX 2 6 3 8
BITMAP
40
40
40
40
80
80
ENDCHAR
STARTCHAR uni05F4
ENCODING 1524
SWIDTH 500 0
DWIDTH 8 0
BBX 5 6 1 8
BITMAP
48
48
48
48
90
90
ENDCHAR
STARTCHAR uni1D1B
ENCODING 7451
SWIDTH 500 0
DWIDTH 8 0
BBX 7 12 1 0
BITMAP
66
66
98
98
10
10
10
10
10
10
10
10
ENDCHAR
STARTCHAR uni1D26
ENCODING 7462
SWIDTH 500 0
DWIDTH 8 0
BBX 6 12 1 0
BITMAP
FC
FC
84
84
80
80
80
80
80
80
80
80
ENDCHAR
STARTCHAR uni1D28
ENCODING 7464
SWIDTH 500 0
DWIDTH 8 0
BBX 7 12 1 0
BITMAP
7E
7E
A8
A8
28
28
28
28
28
28
28
28
ENDCHAR
STARTCHAR Wgrave
ENCODING 7808
SWIDTH 500 0
DWIDTH 8 0
BBX 7 14 1 0
BITMAP
30
30
82
82
82
82
92
92
92
92
92
92
6C
6C
ENDCHAR
STARTCHAR wgrave
ENCODING 7809
SWIDTH 500 0
DWIDTH 8 0
BBX 7 14 1 0
BITMAP
40
40
20
20
82
82
92
92
92
92
92
92
6C
6C
ENDCHAR
STARTCHAR Wacute
ENCODING 7810
SWIDTH 500 0
DWIDTH 8 0
BBX 7 14 1 0
BITMAP
18
18
82
82
82
82
92
92
92
92
92
92
6C
6C
ENDCHAR
STARTCHAR wacute
ENCODING 7811
SWIDTH 500 0
DWIDTH 8 0
BBX 7 14 1 0
BITMAP
04
04
08
08
82
82
92
92
92
92
92
92
6C
6C
ENDCHAR
STARTCHAR Wdieresis
ENCODING 7812
SWIDTH 500 0
DWIDTH 8 0
BBX 7 14 1 0
BITMAP
28
28
82
82
82
82
92
92
92
92
92
92
6C
6C
ENDCHAR
STARTCHAR wdieresis
ENCODING 7813
SWIDTH 500 0
DWIDTH 8 0
BBX 7 14 1 0
BITMAP
82
82
00
00
82
82
92
92
92
92
92
92
6C
6C
ENDCHAR
STARTCHAR uni1E9F
ENCODING 7839
SWIDTH 500 0
DWIDTH 8 0
BBX 6 14 1 0
BITMAP
38
38
40
40
30
30
78
78
84
84
84
84
78
78
ENDCHAR
STARTCHAR Ygrave
ENCODING 7922
SWIDTH 500 0
DWIDTH 8 0
BBX 6 14 1 0
BITMAP
C0
C0
00
00
44
44
28
28
10
10
10
10
38
38
ENDCHAR
STARTCHAR ygrave
ENCODING 7923
SWIDTH 500 0
DWIDTH 8 0
BBX 6 14 1 -2
BITMAP
C0
C0
00
00
84
84
84
84
7C
7C
04
04
78
78
ENDCHAR
STARTCHAR uni2010
ENCODING 8208
SWIDTH 500 0
DWIDTH 8 0
BBX 6 2 0 6
BITMAP
FC
FC
ENDCHAR
STARTCHAR figuredash
ENCODING 8210
SWIDTH 500 0
DWIDTH 8 0
BBX 5 2 1 6
BITMAP
F8
F8
ENDCHAR
STARTCHAR endash
ENCODING 8211
SWIDTH 500 0
DWIDTH 8 0
BBX 5 2 1 6
BITMAP
F8
F8
ENDCHAR
STARTCHAR emdash
ENCODING 8212
SWIDTH 500 0
DWIDTH 8 0
BBX 8 2 0 6
BITMAP
FF
FF
ENDCHAR
STARTCHAR afii00208
ENCODING 8213
SWIDTH 500 0
DWIDTH 8 0
BBX 8 2 0 6
BITMAP
FF
FF
ENDCHAR
STARTCHAR underscoredbl
ENCODING 8215
SWIDTH 500 0
DWIDTH 8 0
BBX 8 6 0 -2
BITMAP
FF
FF
00
00
FF
FF
ENDCHAR
STARTCHAR quoteleft
ENCODING 8216
SWIDTH 500 0
DWIDTH 8 0
BBX 2 6 3 8
BITMAP
40
40
80
80
80
80
ENDCHAR
STARTCHAR quoteright
ENCODING 8217
SWIDTH 500 0
DWIDTH 8 0
BBX 2 6 2 8
BITMAP
40
40
40
40
80
80
ENDCHAR
STARTCHAR quotesinglbase
ENCODING 8218
SWIDTH 500 0
DWIDTH 8 0
BBX 2 6 2 -2
BITMAP
40
40
40
40
80
80
ENDCHAR
STARTCHAR quotereversed
ENCODING 8219
SWIDTH 500 0
DWIDTH 8 0
BBX 2 6 3 8
BITMAP
80
80
80
80
40
40
ENDCHAR
STARTCHAR quotedblleft
ENCODING 8220
SWIDTH 500 0
DWIDTH 8 0
BBX 5 6 1 8
BITMAP
48
48
90
90
90
90
ENDCHAR
STARTCHAR quotedblright
ENCODING 8221
SWIDTH 500 0
DWIDTH 8 0
BBX 5 6 1 8
BITMAP
48
48
48
48
90
90
ENDCHAR
STARTCHAR quotedblbase
ENCODING 8222
SWIDTH 500 0
DWIDTH 8 0
BBX 5 6 1 -2
BITMAP
48
48
48
48
90
90
ENDCHAR
STARTCHAR uni201F
ENCODING 8223
SWIDTH 500 0
DWIDTH 8 0
BBX 5 6 1 8
BITMAP
90
90
90
90
48
48
ENDCHAR
STARTCHAR dagger
ENCODING 8224
SWIDTH 500 0
DWIDTH 8 0
BBX 7 16 1 -2
BITMAP
10
10
10
10
FE
FE
10
10
10
10
10
10
10
10
10
10
ENDCHAR
STARTCHAR daggerdbl
ENCODING 8225
SWIDTH 500 0
DWIDTH 8 0
BBX 7 16 1 -2
BITMAP
10
10
10
10
FE
FE
10
10
10
10
FE
FE
10
10
10
10
ENDCHAR
STARTCHAR bullet
ENCODING 8226
SWIDTH 500 0
DWIDTH 8 0
BBX 4 8 2 2
BITMAP
60
60
F0
F0
F0
F0
60
60
ENDCHAR
STARTCHAR ellipsis
ENCODING 8230
SWIDTH 500 0
DWIDTH 8 0
BBX 7 4 1 0
BITMAP
92
92
92
92
ENDCHAR
STARTCHAR uni2027
ENCODING 8231
SWIDTH 500 0
DWIDTH 8 0
BBX 2 4 3 4
BITMAP
C0
C0
C0
C0
ENDCHAR
STARTCHAR perthousand
ENCODING 8240
SWIDTH 500 0
DWIDTH 8 0
BBX 8 12 0 0
BITMAP
C4
C4
C8
C8
10
10
20
20
5B
5B
9B
9B
ENDCHAR
STARTCHAR minute
ENCODING 8242
SWIDTH 500 0
DWIDTH 8 0
BBX 3 6 2 8
BITMAP
20
20
40
40
80
80
ENDCHAR
STARTCHAR second
ENCODING 8243
SWIDTH 500 0
DWIDTH 8 0
BBX 6 6 1 8
BITMAP
24
24
48
48
90
90
ENDCHAR
STARTCHAR uni2035
ENCODING 8245
SWIDTH 500 0
DWIDTH 8 0
BBX 3 6 2 8
BITMAP
80
80
40
40
20
20
ENDCHAR
STARTCHAR guilsinglleft
ENCODING 8249
SWIDTH 500 0
DWIDTH 8 0
BBX 3 10 2 2
BITMAP
20
20
40
40
80
80
40
40
20
20
ENDCHAR
STARTCHAR guilsinglright
ENCODING 8250
SWIDTH 500 0
DWIDTH 8 0
BBX 3 10 2 2
BITMAP
80
80
40
40
20
20
40
40
80
80
ENDCHAR
STARTCHAR exclamdbl
ENCODING 8252
SWIDTH 500 0
DWIDTH 8 0
BBX 4 14 2 0
BITMAP
90
90
90
90
90
90
90
90
90
90
00
00
90
90
ENDCHAR
STARTCHAR uni203E
ENCODING 8254
SWIDTH 500 0
DWIDTH 8 0
BBX 8 2 0 12
BITMAP
FF
FF
ENDCHAR
STARTCHAR uni203F
ENCODING 8255
SWIDTH 500 0
DWIDTH 8 0
BBX 7 4 1 -2
BITMAP
82
82
7C
7C
ENDCHAR
STARTCHAR uni2040
ENCODING 8256
SWIDTH 500 0
DWIDTH 8 0
BBX 7 4 1 10
BITMAP
7C
7C
82
82
ENDCHAR
STARTCHAR fraction
ENCODING 8260
SWIDTH 500 0
DWIDTH 8 0
BBX 6 12 1 0
BITMAP
04
04
08
08
10
10
20
20
40
40
80
80
ENDCHAR
STARTCHAR uni2054
ENCODING 8276
SWIDTH 500 0
DWIDTH 8 0
BBX 7 4 1 -2
BITMAP
7C
7C
82
82
ENDCHAR
STARTCHAR uni2074
ENCODING 8308
SWIDTH 500 0
DWIDTH 8 0
BBX 4 10 1 4
BITMAP
20
20
60
60
A0
A0
F0
F0
20
20
ENDCHAR
STARTCHAR uni2075
ENCODING 8309
SWIDTH 500 0
DWIDTH 8 0
BBX 4 10 1 4
BITMAP
F0
F0
80
80
E0
E0
10
10
E0
E0
ENDCHAR
STARTCHAR uni2076
ENCODING 8310
SWIDTH 500 0
DWIDTH 8 0
BBX 4 10 1 4
BITMAP
60
60
80
80
E0
E0
90
90
60
60
ENDCHAR
STARTCHAR uni2077
ENCODING 8311
SWIDTH 500 0
DWIDTH 8 0
BBX 4 10 1 4
BITMAP
F0
F0
10
10
20
20
40
40
40
40
ENDCHAR
STARTCHAR uni2078
ENCODING 8312
SWIDTH 500 0
DWIDTH 8 0
BBX 4 10 1 4
BITMAP
60
60
90
90
60
60
90
90
60
60
ENDCHAR
STARTCHAR uni2079
ENCODING 8313
SWIDTH 500 0
DWIDTH 8 0
BBX 4 10 1 4
BITMAP
60
60
90
90
70
70
10
10
60
60
ENDCHAR
STARTCHAR uni207A
ENCODING 8314
SWIDTH 500 0
DWIDTH 8 0
BBX 5 10 1 4
BITMAP
20
20
20
20
F8
F8
20
20
20
20
ENDCHAR
STARTCHAR uni207B
ENCODING 8315
SWIDTH 500 0
DWIDTH 8 0
BBX 4 2 1 8
BITMAP
F0
F0
ENDCHAR
STARTCHAR uni207F
ENCODING 8319
SWIDTH 500 0
DWIDTH 8 0
BBX 5 10 1 4
BITMAP
F0
F0
88
88
88
88
88
88
88
88
ENDCHAR
STARTCHAR uni2081
ENCODING 8321
SWIDTH 500 0
DWIDTH 8 0
BBX 3 10 1 -2
BITMAP
40
40
C0
C0
40
40
40
40
E0
E0
ENDCHAR
STARTCHAR uni2082
ENCODING 8322
SWIDTH 500 0
DWIDTH 8 0
BBX 4 10 1 -2
BITMAP
60
60
90
90
20
20
40
40
F0
F0
ENDCHAR
STARTCHAR uni2083
ENCODING 8323
SWIDTH 500 0
DWIDTH 8 0
BBX 4 10 1 -2
BITMAP
60
60
90
90
20
20
90
90
60
60
ENDCHAR
STARTCHAR uni2084
ENCODING 8324
SWIDTH 500 0
DWIDTH 8 0
BBX 4 10 1 -2
BITMAP
20
20
60
60
A0
A0
F0
F0
20
20
ENDCHAR
STARTCHAR uni2085
ENCODING 8325
SWIDTH 500 0
DWIDTH 8 0
BBX 4 10 1 -2
BITMAP
F0
F0
80
80
E0
E0
10
10
E0
E0
ENDCHAR
STARTCHAR uni2086
ENCODING 8326
SWIDTH 500 0
DWIDTH 8 0
BBX 4 10 1 -2
BITMAP
60
60
80
80
E0
E0
90
90
60
60
ENDCHAR
STARTCHAR uni2087
ENCODING 8327
SWIDTH 500 0
DWIDTH 8 0
BBX 4 10 1 -2
BITMAP
F0
F0
10
10
20
20
40
40
40
40
ENDCHAR
STARTCHAR uni2088
ENCODING 8328
SWIDTH 500 0
DWIDTH 8 0
BBX 4 10 1 -2
BITMAP
60
60
90
90
60
60
90
90
60
60
ENDCHAR
STARTCHAR uni2089
ENCODING 8329
SWIDTH 500 0
DWIDTH 8 0
BBX 4 10 1 -2
BITMAP
60
60
90
90
70
70
10
10
60
60
ENDCHAR
STARTCHAR uni208A
ENCODING 8330
SWIDTH 500 0
DWIDTH 8 0
BBX 5 10 1 -2
BITMAP
20
20
20
20
F8
F8
20
20
20
20
ENDCHAR
STARTCHAR uni208B
ENCODING 8331
SWIDTH 500 0
DWIDTH 8 0
BBX 4 2 1 2
BITMAP
F0
F0
ENDCHAR
STARTCHAR franc
ENCODING 8355
SWIDTH 500 0
DWIDTH 8 0
BBX 6 16 1 -2
BITMAP
FC
FC
44
44
50
50
70
70
50
50
40
40
E0
E0
40
40
ENDCHAR
STARTCHAR lira
ENCODING 8356
SWIDTH 500 0
DWIDTH 8 0
BBX 6 14 1 0
BITMAP
30
30
48
48
E0
E0
40
40
E0
E0
44
44
F8
F8
ENDCHAR
STARTCHAR peseta
ENCODING 8359
SWIDTH 500 0
DWIDTH 8 0
BBX 8 16 0 -2
BITMAP
F8
F8
4C
4C
78
78
44
44
4F
4F
44
44
45
45
E6
E6
ENDCHAR
STARTCHAR afii57636
ENCODING 8362
SWIDTH 500 0
DWIDTH 8 0
BBX 7 12 1 0
BITMAP
FA
FA
8A
8A
AA
AA
AA
AA
A2
A2
BE
BE
ENDCHAR
STARTCHAR Euro
ENCODING 8364
SWIDTH 500 0
DWIDTH 8 0
BBX 7 14 1 0
BITMAP
3C
3C
42
42
F8
F8
40
40
F8
F8
42
42
3C
3C
ENDCHAR
STARTCHAR afii61248
ENCODING 8453
SWIDTH 500 0
DWIDTH 8 0
BBX 7 16 0 -2
BITMAP
62
62
84
84
88
88
70
70
2C
2C
52
52
92
92
0C
0C
ENDCHAR
STARTCHAR afii61289
ENCODING 8467
SWIDTH 500 0
DWIDTH 8 0
BBX 6 14 0 0
BITMAP
20
20
50
50
50
50
50
50
50
50
24
24
98
98
ENDCHAR
STARTCHAR afii61352
ENCODING 8470
SWIDTH 500 0
DWIDTH 8 0
BBX 8 14 0 0
BITMAP
92
92
95
95
92
92
D0
D0
B7
B7
90
90
90
90
ENDCHAR
STARTCHAR trademark
ENCODING 8482
SWIDTH 500 0
DWIDTH 8 0
BBX 8 8 0 6
BITMAP
F1
F1
5B
5B
55
55
51
51
ENDCHAR
STARTCHAR Omega
ENCODING 8486
SWIDTH 500 0
DWIDTH 8 0
BBX 6 14 1 0
BITMAP
30
30
48
48
84
84
84
84
48
48
48
48
CC
CC
ENDCHAR
STARTCHAR estimated
ENCODING 8494
SWIDTH 500 0
DWIDTH 8 0
BBX 6 10 1 0
BITMAP
78
78
84
84
FC
FC
80
80
78
78
ENDCHAR
STARTCHAR uni2150
ENCODING 8528
SWIDTH 500 0
DWIDTH 8 0
BBX 7 16 0 -2
BITMAP
42
42
C4
C4
48
48
F0
F0
2E
2E
42
42
84
84
08
08
ENDCHAR
STARTCHAR uni2151
ENCODING 8529
SWIDTH 500 0
DWIDTH 8 0
BBX 8 16 0 -2
BITMAP
42
42
C4
C4
48
48
F6
F6
29
29
47
47
81
81
06
06
ENDCHAR
STARTCHAR onethird
ENCODING 8531
SWIDTH 500 0
DWIDTH 8 0
BBX 8 16 0 -2
BITMAP
42
42
C4
C4
48
48
F6
F6
29
29
42
42
89
89
06
06
ENDCHAR
STARTCHAR twothirds
ENCODING 8532
SWIDTH 500 0
DWIDTH 8 0
BBX 8 16 0 -2
BITMAP
C2
C2
24
24
48
48
F6
F6
29
29
42
42
89
89
06
06
ENDCHAR
STARTCHAR uni2155
ENCODING 8533
SWIDTH 500 0
DWIDTH 8 0
BBX 8 16 0 -2
BITMAP
42
42
C4
C4
48
48
F7
F7
24
24
46
46
81
81
06
06
ENDCHAR
STARTCHAR uni2156
ENCODING 8534
SWIDTH 500 0
DWIDTH 8 0
BBX 8 16 0 -2
BITMAP
C2
C2
24
24
48
48
F7
F7
24
24
46
46
81
81
06
06
ENDCHAR
STARTCHAR uni2157
ENCODING 8535
SWIDTH 500 0
DWIDTH 8 0
BBX 8 16 0 -2
BITMAP
C0
C0
22
22
44
44
2F
2F
D4
D4
26
26
41
41
86
86
ENDCHAR
STARTCHAR uni2158
ENCODING 8536
SWIDTH 500 0
DWIDTH 8 0
BBX 8 16 0 -2
BITMAP
20
20
62
62
F4
F4
2F
2F
14
14
26
26
41
41
86
86
ENDCHAR
STARTCHAR uni2159
ENCODING 8537
SWIDTH 500 0
DWIDTH 8 0
BBX 8 16 0 -2
BITMAP
42
42
C4
C4
48
48
F6
F6
28
28
4E
4E
89
89
06
06
ENDCHAR
STARTCHAR uni215A
ENCODING 8538
SWIDTH 500 0
DWIDTH 8 0
BBX 8 16 0 -2
BITMAP
E2
E2
84
84
E8
E8
36
36
E8
E8
4E
4E
89
89
06
06
ENDCHAR
STARTCHAR oneeighth
ENCODING 8539
SWIDTH 500 0
DWIDTH 8 0
BBX 8 16 0 -2
BITMAP
42
42
C4
C4
48
48
F6
F6
29
29
46
46
89
89
06
06
ENDCHAR
STARTCHAR threeeighths
ENCODING 8540
SWIDTH 500 0
DWIDTH 8 0
BBX 8 16 0 -2
BITMAP
C0
C0
22
22
C4
C4
2E
2E
D9
D9
26
26
49
49
86
86
ENDCHAR
STARTCHAR fiveeighths
ENCODING 8541
SWIDTH 500 0
DWIDTH 8 0
BBX 8 16 0 -2
BITMAP
E2
E2
84
84
E8
E8
36
36
E9
E9
46
46
89
89
06
06
ENDCHAR
STARTCHAR seveneighths
ENCODING 8542
SWIDTH 500 0
DWIDTH 8 0
BBX 8 16 0 -2
BITMAP
E2
E2
24
24
48
48
96
96
29
29
46
46
89
89
06
06
ENDCHAR
STARTCHAR arrowleft
ENCODING 8592
SWIDTH 500 0
DWIDTH 8 0
BBX 7 10 0 2
BITMAP
30
30
60
60
FE
FE
60
60
30
30
ENDCHAR
STARTCHAR arrowup
ENCODING 8593
SWIDTH 500 0
DWIDTH 8 0
BBX 5 14 1 0
BITMAP
20
20
70
70
F8
F8
A8
A8
20
20
20
20
20
20
ENDCHAR
STARTCHAR arrowright
ENCODING 8594
SWIDTH 500 0
DWIDTH 8 0
BBX 7 10 0 2
BITMAP
18
18
0C
0C
FE
FE
0C
0C
18
18
ENDCHAR
STARTCHAR arrowdown
ENCODING 8595
SWIDTH 500 0
DWIDTH 8 0
BBX 5 14 1 0
BITMAP
20
20
20
20
20
20
A8
A8
F8
F8
70
70
20
20
ENDCHAR
STARTCHAR arrowboth
ENCODING 8596
SWIDTH 500 0
DWIDTH 8 0
BBX 8 10 0 2
BITMAP
24
24
66
66
FF
FF
66
66
24
24
ENDCHAR
STARTCHAR arrowupdn
ENCODING 8597
SWIDTH 500 0
DWIDTH 8 0
BBX 6 16 1 -2
BITMAP
30
30
78
78
FC
FC
30
30
30
30
FC
FC
78
78
30
30
ENDCHAR
STARTCHAR arrowupdnbse
ENCODING 8616
SWIDTH 500 0
DWIDTH 8 0
BBX 8 16 0 -2
BITMAP
18
18
3C
3C
7E
7E
18
18
7E
7E
3C
3C
18
18
FF
FF
ENDCHAR
STARTCHAR partialdiff
ENCODING 8706
SWIDTH 500 0
DWIDTH 8 0
BBX 6 14 1 0
BITMAP
30
30
48
48
04
04
74
74
8C
8C
84
84
78
78
ENDCHAR
STARTCHAR emptyset
ENCODING 8709
SWIDTH 500 0
DWIDTH 8 0
BBX 7 16 0 -2
BITMAP
02
02
04
04
3C
3C
4A
4A
52
52
3C
3C
40
40
80
80
ENDCHAR
STARTCHAR Delta
ENCODING 8710
SWIDTH 500 0
DWIDTH 8 0
BBX 7 14 1 0
BITMAP
10
10
28
28
44
44
82
82
82
82
82
82
FE
FE
ENDCHAR
STARTCHAR element
ENCODING 8712
SWIDTH 500 0
DWIDTH 8 0
BBX 4 14 2 0
BITMAP
30
30
40
40
80
80
F0
F0
80
80
40
40
30
30
ENDCHAR
STARTCHAR product
ENCODING 8719
SWIDTH 500 0
DWIDTH 8 0
BBX 6 16 1 -2
BITMAP
FC
FC
84
84
84
84
84
84
84
84
84
84
84
84
84
84
ENDCHAR
STARTCHAR summation
ENCODING 8721
SWIDTH 500 0
DWIDTH 8 0
BBX 6 14 1 0
BITMAP
FC
FC
84
84
40
40
30
30
40
40
84
84
FC
FC
ENDCHAR
STARTCHAR minus
ENCODING 8722
SWIDTH 500 0
DWIDTH 8 0
BBX 6 2 1 6
BITMAP
FC
FC
ENDCHAR
STARTCHAR uni2215
ENCODING 8725
SWIDTH 500 0
DWIDTH 8 0
BBX 6 12 1 0
BITMAP
04
04
08
08
10
10
20
20
40
40
80
80
ENDCHAR
STARTCHAR uni2219
ENCODING 8729
SWIDTH 500 0
DWIDTH 8 0
BBX 2 4 3 4
BITMAP
C0
C0
C0
C0
ENDCHAR
STARTCHAR radical
ENCODING 8730
SWIDTH 500 0
DWIDTH 8 0
BBX 8 16 0 -2
BITMAP
0F
0F
08
08
08
08
08
08
08
08
C8
C8
28
28
18
18
ENDCHAR
STARTCHAR infinity
ENCODING 8734
SWIDTH 500 0
DWIDTH 8 0
BBX 8 10 0 2
BITMAP
62
62
95
95
89
89
95
95
62
62
ENDCHAR
STARTCHAR orthogonal
ENCODING 8735
SWIDTH 500 0
DWIDTH 8 0
BBX 6 8 1 2
BITMAP
80
80
80
80
80
80
FC
FC
ENDCHAR
STARTCHAR intersection
ENCODING 8745
SWIDTH 500 0
DWIDTH 8 0
BBX 6 14 1 0
BITMAP
78
78
84
84
84
84
84
84
84
84
84
84
84
84
ENDCHAR
STARTCHAR integral
ENCODING 8747
SWIDTH 500 0
DWIDTH 8 0
BBX 7 16 0 -2
BITMAP
0C
0C
12
12
12
12
10
10
10
10
90
90
90
90
60
60
ENDCHAR
STARTCHAR approxequal
ENCODING 8776
SWIDTH 500 0
DWIDTH 8 0
BBX 6 10 1 2
BITMAP
64
64
98
98
00
00
64
64
98
98
ENDCHAR
STARTCHAR notequal
ENCODING 8800
SWIDTH 500 0
DWIDTH 8 0
BBX 6 12 1 0
BITMAP
08
08
FC
FC
10
10
20
20
FC
FC
40
40
ENDCHAR
STARTCHAR equivalence
ENCODING 8801
SWIDTH 500 0
DWIDTH 8 0
BBX 6 10 1 2
BITMAP
FC
FC
00
00
FC
FC
00
00
FC
FC
ENDCHAR
STARTCHAR lessequal
ENCODING 8804
SWIDTH 500 0
DWIDTH 8 0
BBX 6 14 1 0
BITMAP
10
10
20
20
40
40
20
20
10
10
00
00
FC
FC
ENDCHAR
STARTCHAR greaterequal
ENCODING 8805
SWIDTH 500 0
DWIDTH 8 0
BBX 6 14 1 0
BITMAP
20
20
10
10
08
08
10
10
20
20
00
00
FC
FC
ENDCHAR
STARTCHAR uni2299
ENCODING 8857
SWIDTH 500 0
DWIDTH 8 0
BBX 7 14 0 0
BITMAP
7C
7C
82
82
82
82
92
92
82
82
82
82
7C
7C
ENDCHAR
STARTCHAR uni2300
ENCODING 8960
SWIDTH 500 0
DWIDTH 8 0
BBX 7 14 0 0
BITMAP
7C
7C
86
86
8E
8E
BA
BA
E2
E2
C2
C2
7C
7C
ENDCHAR
STARTCHAR house
ENCODING 8962
SWIDTH 500 0
DWIDTH 8 0
BBX 7 12 1 0
BITMAP
10
10
28
28
44
44
82
82
82
82
FE
FE
ENDCHAR
STARTCHAR revlogicalnot
ENCODING 8976
SWIDTH 500 0
DWIDTH 8 0
BBX 6 6 1 2
BITMAP
FC
FC
80
80
80
80
ENDCHAR
STARTCHAR integraltp
ENCODING 8992
SWIDTH 500 0
DWIDTH 8 0
BBX 4 16 3 -2
BITMAP
60
60
90
90
90
90
80
80
80
80
80
80
80
80
80
80
ENDCHAR
STARTCHAR integralbt
ENCODING 8993
SWIDTH 500 0
DWIDTH 8 0
BBX 4 16 0 -2
BITMAP
10
10
10
10
10
10
10
10
10
10
90
90
90
90
60
60
ENDCHAR
STARTCHAR SF100000
ENCODING 9472
SWIDTH 500 0
DWIDTH 8 0
BBX 8 2 0 4
BITMAP
FF
FF
ENDCHAR
STARTCHAR SF110000
ENCODING 9474
SWIDTH 500 0
DWIDTH 8 0
BBX 1 16 3 -2
BITMAP
80
80
80
80
80
80
80
80
80
80
80
80
80
80
80
80
ENDCHAR
STARTCHAR SF010000
ENCODING 9484
SWIDTH 500 0
DWIDTH 8 0
BBX 5 8 3 -2
BITMAP
F8
F8
80
80
80
80
80
80
ENDCHAR
STARTCHAR SF030000
ENCODING 9488
SWIDTH 500 0
DWIDTH 8 0
BBX 4 8 0 -2
BITMAP
F0
F0
10
10
10
10
10
10
ENDCHAR
STARTCHAR SF020000
ENCODING 9492
SWIDTH 500 0
DWIDTH 8 0
BBX 5 10 3 4
BITMAP
80
80
80
80
80
80
80
80
F8
F8
ENDCHAR
STARTCHAR SF040000
ENCODING 9496
SWIDTH 500 0
DWIDTH 8 0
BBX 4 10 0 4
BITMAP
10
10
10
10
10
10
10
10
F0
F0
ENDCHAR
STARTCHAR SF080000
ENCODING 9500
SWIDTH 500 0
DWIDTH 8 0
BBX 5 16 3 -2
BITMAP
80
80
80
80
80
80
80
80
F8
F8
80
80
80
80
80
80
ENDCHAR
STARTCHAR SF090000
ENCODING 9508
SWIDTH 500 0
DWIDTH 8 0
BBX 4 16 0 -2
BITMAP
10
10
10
10
10
10
10
10
F0
F0
10
10
10
10
10
10
ENDCHAR
STARTCHAR SF060000
ENCODING 9516
SWIDTH 500 0
DWIDTH 8 0
BBX 8 8 0 -2
BITMAP
FF
FF
10
10
10
10
10
10
ENDCHAR
STARTCHAR SF070000
ENCODING 9524
SWIDTH 500 0
DWIDTH 8 0
BBX 8 10 0 4
BITMAP
10
10
10
10
10
10
10
10
FF
FF
ENDCHAR
STARTCHAR SF050000
ENCODING 9532
SWIDTH 500 0
DWIDTH 8 0
BBX 8 16 0 -2
BITMAP
10
10
10
10
10
10
10
10
FF
FF
10
10
10
10
10
10
ENDCHAR
STARTCHAR SF430000
ENCODING 9552
SWIDTH 500 0
DWIDTH 8 0
BBX 8 6 0 4
BITMAP
FF
FF
00
00
FF
FF
ENDCHAR
STARTCHAR SF240000
ENCODING 9553
SWIDTH 500 0
DWIDTH 8 0
BBX 3 16 3 -2
BITMAP
A0
A0
A0
A0
A0
A0
A0
A0
A0
A0
A0
A0
A0
A0
A0
A0
ENDCHAR
STARTCHAR SF510000
ENCODING 9554
SWIDTH 500 0
DWIDTH 8 0
BBX 5 12 3 -2
BITMAP
F8
F8
80
80
F8
F8
80
80
80
80
80
80
ENDCHAR
STARTCHAR SF520000
ENCODING 9555
SWIDTH 500 0
DWIDTH 8 0
BBX 5 8 3 -2
BITMAP
F8
F8
A0
A0
A0
A0
A0
A0
ENDCHAR
STARTCHAR SF390000
ENCODING 9556
SWIDTH 500 0
DWIDTH 8 0
BBX 5 12 3 -2
BITMAP
F8
F8
80
80
B8
B8
A0
A0
A0
A0
A0
A0
ENDCHAR
STARTCHAR SF220000
ENCODING 9557
SWIDTH 500 0
DWIDTH 8 0
BBX 4 12 0 -2
BITMAP
F0
F0
10
10
F0
F0
10
10
10
10
10
10
ENDCHAR
STARTCHAR SF210000
ENCODING 9558
SWIDTH 500 0
DWIDTH 8 0
BBX 6 8 0 -2
BITMAP
FC
FC
14
14
14
14
14
14
ENDCHAR
STARTCHAR SF250000
ENCODING 9559
SWIDTH 500 0
DWIDTH 8 0
BBX 6 12 0 -2
BITMAP
FC
FC
04
04
F4
F4
14
14
14
14
14
14
ENDCHAR
STARTCHAR SF500000
ENCODING 9560
SWIDTH 500 0
DWIDTH 8 0
BBX 5 10 3 4
BITMAP
80
80
80
80
F8
F8
80
80
F8
F8
ENDCHAR
STARTCHAR SF490000
ENCODING 9561
SWIDTH 500 0
DWIDTH 8 0
BBX 5 10 3 4
BITMAP
A0
A0
A0
A0
A0
A0
A0
A0
F8
F8
ENDCHAR
STARTCHAR SF380000
ENCODING 9562
SWIDTH 500 0
DWIDTH 8 0
BBX 5 10 3 4
BITMAP
A0
A0
A0
A0
B8
B8
80
80
F8
F8
ENDCHAR
STARTCHAR SF280000
ENCODING 9563
SWIDTH 500 0
DWIDTH 8 0
BBX 4 10 0 4
BITMAP
10
10
10
10
F0
F0
10
10
F0
F0
ENDCHAR
STARTCHAR SF270000
ENCODING 9564
SWIDTH 500 0
DWIDTH 8 0
BBX 6 10 0 4
BITMAP
14
14
14
14
14
14
14
14
FC
FC
ENDCHAR
STARTCHAR SF260000
ENCODING 9565
SWIDTH 500 0
DWIDTH 8 0
BBX 6 10 0 4
BITMAP
14
14
14
14
F4
F4
04
04
FC
FC
ENDCHAR
STARTCHAR SF360000
ENCODING 9566
SWIDTH 500 0
DWIDTH 8 0
BBX 5 16 3 -2
BITMAP
80
80
80
80
F8
F8
80
80
F8
F8
80
80
80
80
80
80
ENDCHAR
STARTCHAR SF370000
ENCODING 9567
SWIDTH 500 0
DWIDTH 8 0
BBX 5 16 3 -2
BITMAP
A0
A0
A0
A0
A0
A0
A0
A0
B8
B8
A0
A0
A0
A0
A0
A0
ENDCHAR
STARTCHAR SF420000
ENCODING 9568
SWIDTH 500 0
DWIDTH 8 0
BBX 5 16 3 -2
BITMAP
A0
A0
A0
A0
B8
B8
80
80
B8
B8
A0
A0
A0
A0
A0
A0
ENDCHAR
STARTCHAR SF190000
ENCODING 9569
SWIDTH 500 0
DWIDTH 8 0
BBX 4 16 0 -2
BITMAP
10
10
10
10
F0
F0
10
10
F0
F0
10
10
10
10
10
10
ENDCHAR
STARTCHAR SF200000
ENCODING 9570
SWIDTH 500 0
DWIDTH 8 0
BBX 6 16 0 -2
BITMAP
14
14
14
14
14
14
14
14
F4
F4
14
14
14
14
14
14
ENDCHAR
STARTCHAR SF230000
ENCODING 9571
SWIDTH 500 0
DWIDTH 8 0
BBX 6 16 0 -2
BITMAP
14
14
14
14
F4
F4
04
04
F4
F4
14
14
14
14
14
14
ENDCHAR
STARTCHAR SF470000
ENCODING 9572
SWIDTH 500 0
DWIDTH 8 0
BBX 8 12 0 -2
BITMAP
FF
FF
00
00
FF
FF
10
10
10
10
10
10
ENDCHAR
STARTCHAR SF480000
ENCODING 9573
SWIDTH 500 0
DWIDTH 8 0
BBX 8 8 0 -2
BITMAP
FF
FF
14
14
14
14
14
14
ENDCHAR
STARTCHAR SF410000
ENCODING 9574
SWIDTH 500 0
DWIDTH 8 0
BBX 8 12 0 -2
BITMAP
FF
FF
00
00
F7
F7
14
14
14
14
14
14
ENDCHAR
STARTCHAR SF450000
ENCODING 9575
SWIDTH 500 0
DWIDTH 8 0
BBX 8 10 0 4
BITMAP
10
10
10
10
FF
FF
00
00
FF
FF
ENDCHAR
STARTCHAR SF460000
ENCODING 9576
SWIDTH 500 0
DWIDTH 8 0
BBX 8 10 0 4
BITMAP
14
14
14
14
14
14
14
14
FF
FF
ENDCHAR
STARTCHAR SF400000
ENCODING 9577
SWIDTH 500 0
DWIDTH 8 0
BBX 8 10 0 4
BITMAP
14
14
14
14
F7
F7
00
00
FF
FF
ENDCHAR
STARTCHAR SF540000
ENCODING 9578
SWIDTH 500 0
DWIDTH 8 0
BBX 8 16 0 -2
BITMAP
10
10
10
10
FF
FF
10
10
FF
FF
10
10
10
10
10
10
ENDCHAR
STARTCHAR SF530000
ENCODING 9579
SWIDTH 500 0
DWIDTH 8 0
BBX 8 16 0 -2
BITMAP
14
14
14
14
14
14
14
14
FF
FF
14
14
14
14
14
14
ENDCHAR
STARTCHAR SF440000
ENCODING 9580
SWIDTH 500 0
DWIDTH 8 0
BBX 8 16 0 -2
BITMAP
14
14
14
14
F7
F7
00
00
F7
F7
14
14
14
14
14
14
ENDCHAR
STARTCHAR upblock
ENCODING 9600
SWIDTH 500 0
DWIDTH 8 0
BBX 8 8 0 6
BITMAP
FF
FF
FF
FF
FF
FF
FF
FF
ENDCHAR
STARTCHAR uni2581
ENCODING 9601
SWIDTH 500 0
DWIDTH 8 0
BBX 8 4 0 -2
BITMAP
FF
FF
FF
FF
ENDCHAR
STARTCHAR dnblock
ENCODING 9604
SWIDTH 500 0
DWIDTH 8 0
BBX 8 8 0 -2
BITMAP
FF
FF
FF
FF
FF
FF
FF
FF
ENDCHAR
STARTCHAR block
ENCODING 9608
SWIDTH 500 0
DWIDTH 8 0
BBX 8 16 0 -2
BITMAP
FF
FF
FF
FF
FF
FF
FF
FF
FF
FF
FF
FF
FF
FF
FF
FF
ENDCHAR
STARTCHAR lfblock
ENCODING 9612
SWIDTH 500 0
DWIDTH 8 0
BBX 4 16 0 -2
BITMAP
F0
F0
F0
F0
F0
F0
F0
F0
F0
F0
F0
F0
F0
F0
F0
F0
ENDCHAR
STARTCHAR rtblock
ENCODING 9616
SWIDTH 500 0
DWIDTH 8 0
BBX 4 16 4 -2
BITMAP
F0
F0
F0
F0
F0
F0
F0
F0
F0
F0
F0
F0
F0
F0
F0
F0
ENDCHAR
STARTCHAR ltshade
ENCODING 9617
SWIDTH 500 0
DWIDTH 8 0
BBX 7 16 0 -2
BITMAP
22
22
88
88
22
22
88
88
22
22
88
88
22
22
88
88
ENDCHAR
STARTCHAR shade
ENCODING 9618
SWIDTH 500 0
DWIDTH 8 0
BBX 8 16 0 -2
BITMAP
55
55
AA
AA
55
55
AA
AA
55
55
AA
AA
55
55
AA
AA
ENDCHAR
STARTCHAR dkshade
ENCODING 9619
SWIDTH 500 0
DWIDTH 8 0
BBX 8 16 0 -2
BITMAP
DB
DB
77
77
DB
DB
EE
EE
DB
DB
77
77
DB
DB
EE
EE
ENDCHAR
STARTCHAR filledbox
ENCODING 9632
SWIDTH 500 0
DWIDTH 8 0
BBX 4 8 2 2
BITMAP
F0
F0
F0
F0
F0
F0
F0
F0
ENDCHAR
STARTCHAR H22073
ENCODING 9633
SWIDTH 500 0
DWIDTH 8 0
BBX 4 8 2 2
BITMAP
F0
F0
90
90
90
90
F0
F0
ENDCHAR
STARTCHAR H18543
ENCODING 9642
SWIDTH 500 0
DWIDTH 8 0
BBX 3 6 3 2
BITMAP
E0
E0
E0
E0
E0
E0
ENDCHAR
STARTCHAR H18551
ENCODING 9643
SWIDTH 500 0
DWIDTH 8 0
BBX 3 6 3 2
BITMAP
E0
E0
A0
A0
E0
E0
ENDCHAR
STARTCHAR filledrect
ENCODING 9644
SWIDTH 500 0
DWIDTH 8 0
BBX 6 6 1 0
BITMAP
FC
FC
FC
FC
FC
FC
ENDCHAR
STARTCHAR triagup
ENCODING 9650
SWIDTH 500 0
DWIDTH 8 0
BBX 7 10 0 2
BITMAP
10
10
38
38
7C
7C
FE
FE
FE
FE
ENDCHAR
STARTCHAR triagrt
ENCODING 9658
SWIDTH 500 0
DWIDTH 8 0
BBX 7 14 0 0
BITMAP
80
80
E0
E0
F8
F8
FE
FE
F8
F8
E0
E0
80
80
ENDCHAR
STARTCHAR triagdn
ENCODING 9660
SWIDTH 500 0
DWIDTH 8 0
BBX 7 10 0 2
BITMAP
FE
FE
FE
FE
7C
7C
38
38
10
10
ENDCHAR
STARTCHAR triaglf
ENCODING 9668
SWIDTH 500 0
DWIDTH 8 0
BBX 7 14 0 0
BITMAP
02
02
0E
0E
3E
3E
FE
FE
3E
3E
0E
0E
02
02
ENDCHAR
STARTCHAR lozenge
ENCODING 9674
SWIDTH 500 0
DWIDTH 8 0
BBX 7 14 0 0
BITMAP
10
10
28
28
44
44
82
82
44
44
28
28
10
10
ENDCHAR
STARTCHAR circle
ENCODING 9675
SWIDTH 500 0
DWIDTH 8 0
BBX 6 12 1 0
BITMAP
78
78
CC
CC
84
84
84
84
CC
CC
78
78
ENDCHAR
STARTCHAR H18533
ENCODING 9679
SWIDTH 500 0
DWIDTH 8 0
BBX 6 12 1 0
BITMAP
78
78
FC
FC
FC
FC
FC
FC
FC
FC
78
78
ENDCHAR
STARTCHAR invbullet
ENCODING 9688
SWIDTH 500 0
DWIDTH 8 0
BBX 8 16 0 -2
BITMAP
FF
FF
FF
FF
E7
E7
C3
C3
C3
C3
E7
E7
FF
FF
FF
FF
ENDCHAR
STARTCHAR invcircle
ENCODING 9689
SWIDTH 500 0
DWIDTH 8 0
BBX 8 16 0 -2
BITMAP
FF
FF
C3
C3
99
99
BD
BD
BD
BD
99
99
C3
C3
FF
FF
ENDCHAR
STARTCHAR openbullet
ENCODING 9702
SWIDTH 500 0
DWIDTH 8 0
BBX 4 8 2 2
BITMAP
60
60
90
90
90
90
60
60
ENDCHAR
STARTCHAR smileface
ENCODING 9786
SWIDTH 500 0
DWIDTH 8 0
BBX 8 16 0 -2
BITMAP
7E
7E
81
81
A5
A5
81
81
BD
BD
99
99
81
81
7E
7E
ENDCHAR
STARTCHAR invsmileface
ENCODING 9787
SWIDTH 500 0
DWIDTH 8 0
BBX 8 16 0 -2
BITMAP
7E
7E
FF
FF
DB
DB
FF
FF
C3
C3
E7
E7
FF
FF
7E
7E
ENDCHAR
STARTCHAR sun
ENCODING 9788
SWIDTH 500 0
DWIDTH 8 0
BBX 8 16 0 -2
BITMAP
18
18
DB
DB
3C
3C
E7
E7
E7
E7
3C
3C
DB
DB
18
18
ENDCHAR
STARTCHAR female
ENCODING 9792
SWIDTH 500 0
DWIDTH 8 0
BBX 6 16 1 -2
BITMAP
78
78
84
84
84
84
84
84
78
78
30
30
FC
FC
30
30
ENDCHAR
STARTCHAR male
ENCODING 9794
SWIDTH 500 0
DWIDTH 8 0
BBX 8 16 0 -2
BITMAP
0F
0F
03
03
05
05
7D
7D
84
84
84
84
84
84
78
78
ENDCHAR
STARTCHAR spade
ENCODING 9824
SWIDTH 500 0
DWIDTH 8 0
BBX 7 16 0 -2
BITMAP
10
10
10
10
38
38
7C
7C
FE
FE
7C
7C
10
10
38
38
ENDCHAR
STARTCHAR club
ENCODING 9827
SWIDTH 500 0
DWIDTH 8 0
BBX 7 16 0 -2
BITMAP
38
38
7C
7C
38
38
FE
FE
FE
FE
D6
D6
10
10
38
38
ENDCHAR
STARTCHAR heart
ENCODING 9829
SWIDTH 500 0
DWIDTH 8 0
BBX 7 14 0 0
BITMAP
6C
6C
FE
FE
FE
FE
FE
FE
7C
7C
38
38
10
10
ENDCHAR
STARTCHAR diamond
ENCODING 9830
SWIDTH 500 0
DWIDTH 8 0
BBX 7 14 0 0
BITMAP
10
10
38
38
7C
7C
FE
FE
7C
7C
38
38
10
10
ENDCHAR
STARTCHAR musicalnote
ENCODING 9834
SWIDTH 500 0
DWIDTH 8 0
BBX 8 16 0 -2
BITMAP
3F
3F
21
21
3F
3F
20
20
20
20
60
60
E0
E0
C0
C0
ENDCHAR
STARTCHAR musicalnotedbl
ENCODING 9835
SWIDTH 500 0
DWIDTH 8 0
BBX 8 16 0 -2
BITMAP
3F
3F
21
21
3F
3F
21
21
23
23
67
67
E6
E6
C0
C0
ENDCHAR
STARTCHAR uni2713
ENCODING 10003
SWIDTH 500 0
DWIDTH 8 0
BBX 6 16 1 -2
BITMAP
04
04
04
04
04
04
04
04
88
88
48
48
28
28
10
10
ENDCHAR
STARTCHAR uniFB01
ENCODING 64257
SWIDTH 500 0
DWIDTH 8 0
BBX 7 14 1 0
BITMAP
30
30
48
48
40
40
FC
FC
44
44
44
44
EE
EE
ENDCHAR
STARTCHAR uniFB02
ENCODING 64258
SWIDTH 500 0
DWIDTH 8 0
BBX 7 14 1 0
BITMAP
3C
3C
44
44
44
44
E4
E4
44
44
44
44
EE
EE
ENDCHAR
STARTCHAR uniFFFD
ENCODING 65533
SWIDTH 500 0
DWIDTH 8 0
BBX 8 16 0 -2
BITMAP
C3
C3
BD
BD
FD
FD
FB
FB
F7
F7
FF
FF
F7
F7
FF
FF
ENDCHAR
STARTCHAR .notdef
ENCODING -1
SWIDTH 500 0
DWIDTH 8 0
BBX 8 16 0 -2
BITMAP
C3
C3
BD
BD
FD
FD
FB
FB
F7
F7
FF
FF
F7
F7
FF
FF
ENDCHAR
ENDFONT
